Junicode.ufo
<glyph name="Agrave" format="1">
  <advance width="1398"/>
  <unicode hex="00C0"/>
  <outline>
    <contour>
      <point x="636" y="-75" type="move" name="below"/>
    </contour>
    <component base="CapGrave" xOffset="189"/>
    <component base="A"/>
  </outline>
</glyph>
<glyph name="Aacute" format="1">
  <advance width="1398"/>
  <unicode hex="00C1"/>
  <outline>
    <contour>
      <point x="628" y="-75" type="move" name="below"/>
    </contour>
    <component base="CapAcute" xOffset="422"/>
    <component base="A"/>
  </outline>
</glyph>
<glyph name="Acircumflex" format="1">
  <advance width="1398"/>
  <unicode hex="00C2"/>
  <outline>
    <contour>
      <point x="644" y="-75" type="move" name="below"/>
    </contour>
    <component base="CapCircumflex" xOffset="313"/>
    <component base="A"/>
  </outline>
</glyph>
<glyph name="Atilde" format="1">
  <advance width="1398"/>
  <unicode hex="00C3"/>
  <outline>
    <contour>
      <point x="656" y="-75" type="move" name="below"/>
    </contour>
    <component base="CapTilde" xOffset="296"/>
    <component base="A"/>
  </outline>
</glyph>
<glyph name="Adieresis" format="1">
  <advance width="1398"/>
  <unicode hex="00C4"/>
  <outline>
    <contour>
      <point x="652" y="-75" type="move" name="below"/>
    </contour>
    <component base="CapDieresis" xOffset="276"/>
    <component base="A"/>
  </outline>
</glyph>
<glyph name="Ccedilla" format="1">
  <advance width="1344"/>
  <unicode hex="00C7"/>
  <outline>
    <contour>
      <point x="858" y="-284" type="qcurve"/>
      <point x="858" y="-367"/>
      <point x="781" y="-421" type="qcurve"/>
      <point x="721" y="-465"/>
      <point x="645" y="-465" type="qcurve"/>
      <point x="526" y="-465"/>
      <point x="526" y="-393" type="qcurve"/>
      <point x="526" y="-340"/>
      <point x="577" y="-340" type="qcurve"/>
      <point x="600" y="-340"/>
      <point x="635.5" y="-369.5" type="qcurve"/>
      <point x="671" y="-399"/>
      <point x="685" y="-399" type="qcurve"/>
      <point x="741" y="-399"/>
      <point x="741" y="-336" type="qcurve"/>
      <point x="741" y="-269"/>
      <point x="644" y="-213" type="qcurve"/>
      <point x="620" y="-201"/>
      <point x="620" y="-187.5" type="qcurve"/>
      <point x="620" y="-174"/>
      <point x="629" y="-160" type="qcurve"/>
      <point x="690" y="-69" type="line"/>
      <point x="700" y="-54"/>
      <point x="700" y="-39.5" type="qcurve"/>
      <point x="700" y="-25"/>
      <point x="676" y="-23" type="qcurve"/>
      <point x="559" y="-12"/>
      <point x="427" y="59" type="qcurve"/>
      <point x="276" y="145"/>
      <point x="183.5" y="296.5" type="qcurve"/>
      <point x="91" y="448"/>
      <point x="91" y="647" type="qcurve"/>
      <point x="91" y="870"/>
      <point x="186.5" y="1034.5" type="qcurve"/>
      <point x="282" y="1199"/>
      <point x="435" y="1292" type="qcurve"/>
      <point x="588" y="1385"/>
      <point x="812" y="1385" type="qcurve"/>
      <point x="923" y="1385"/>
      <point x="1012" y="1367.5" type="qcurve"/>
      <point x="1101" y="1350"/>
      <point x="1230" y="1327" type="qcurve"/>
      <point x="1259" y="1193"/>
      <point x="1259" y="1016" type="qcurve"/>
      <point x="1259" y="1000"/>
      <point x="1225.5" y="1000" type="qcurve"/>
      <point x="1192" y="1000"/>
      <point x="1190" y="1014" type="qcurve"/>
      <point x="1162" y="1314"/>
      <point x="783" y="1314" type="qcurve"/>
      <point x="579" y="1314"/>
      <point x="430.5" y="1130" type="qcurve"/>
      <point x="282" y="946"/>
      <point x="282" y="707" type="qcurve"/>
      <point x="282" y="424"/>
      <point x="427" y="236" type="qcurve"/>
      <point x="572" y="48"/>
      <point x="780" y="48" type="qcurve"/>
      <point x="1134" y="48"/>
      <point x="1232" y="317" type="qcurve"/>
      <point x="1236" y="328"/>
      <point x="1260.5" y="328" type="qcurve"/>
      <point x="1285" y="328"/>
      <point x="1292" y="322.5" type="qcurve"/>
      <point x="1299" y="317"/>
      <point x="1299" y="306" type="qcurve"/>
      <point x="1262" y="115"/>
      <point x="1209" y="36" type="qcurve"/>
      <point x="1177" y="32"/>
      <point x="1132" y="19" type="qcurve"/>
      <point x="999" y="-22"/>
      <point x="826" y="-26" type="qcurve"/>
      <point x="791" y="-27"/>
      <point x="773" y="-52" type="qcurve"/>
      <point x="753" y="-80" type="line"/>
      <point x="743" y="-92"/>
      <point x="743" y="-105" type="qcurve"/>
      <point x="743" y="-118"/>
      <point x="762" y="-130" type="qcurve"/>
      <point x="858" y="-201"/>
    </contour>
  </outline>
</glyph>
<glyph name="Eacute" format="1">
  <advance width="1235"/>
  <unicode hex="00C9"/>
  <outline>
    <contour>
      <point x="632" y="-75" type="move" name="below"/>
    </contour>
    <component base="CapAcute" xOffset="364"/>
    <component base="E"/>
  </outline>
</glyph>
<glyph name="Ecircumflex" format="1">
  <advance width="1235"/>
  <unicode hex="00CA"/>
  <outline>
    <contour>
      <point x="624" y="-75" type="move" name="below"/>
    </contour>
    <component base="CapCircumflex" xOffset="240"/>
    <component base="E"/>
  </outline>
</glyph>
<glyph name="Edieresis" format="1">
  <advance width="1235"/>
  <unicode hex="00CB"/>
  <outline>
    <contour>
      <point x="608" y="-75" type="move" name="below"/>
    </contour>
    <component base="CapDieresis" xOffset="204"/>
    <component base="E"/>
  </outline>
</glyph>
<glyph name="Igrave" format="1">
  <advance width="683"/>
  <unicode hex="00CC"/>
  <outline>
    <contour>
      <point x="332" y="-75" type="move" name="below"/>
    </contour>
    <component base="CapGrave" xOffset="-174"/>
    <component base="I"/>
  </outline>
</glyph>
<glyph name="Iacute" format="1">
  <advance width="683"/>
  <unicode hex="00CD"/>
  <outline>
    <contour>
      <point x="336" y="-75" type="move" name="below"/>
    </contour>
    <component base="CapAcute" xOffset="133"/>
    <component base="I"/>
  </outline>
</glyph>
<glyph name="Icircumflex" format="1">
  <advance width="683"/>
  <unicode hex="00CE"/>
  <outline>
    <contour>
      <point x="353" y="-75" type="move" name="below"/>
    </contour>
    <component base="CapCircumflex" xOffset="-50"/>
    <component base="I"/>
  </outline>
</glyph>
<glyph name="Idieresis" format="1">
  <advance width="683"/>
  <unicode hex="00CF"/>
  <outline>
    <contour>
      <point x="344" y="-75" type="move" name="below"/>
    </contour>
    <component base="CapDieresis" xOffset="-76"/>
    <component base="I"/>
  </outline>
</glyph>
<glyph name="Ograve" format="1">
  <advance width="1461"/>
  <unicode hex="00D2"/>
  <outline>
    <contour>
      <point x="732" y="-75" type="move" name="below"/>
    </contour>
    <component base="CapGrave" xOffset="173"/>
    <component base="O"/>
  </outline>
</glyph>
<glyph name="Oacute" format="1">
  <advance width="1461"/>
  <unicode hex="00D3"/>
  <outline>
    <contour>
      <point x="740" y="-75" type="move" name="below"/>
    </contour>
    <component base="CapAcute" xOffset="459"/>
    <component base="O"/>
  </outline>
</glyph>
<glyph name="Ocircumflex" format="1">
  <advance width="1461"/>
  <unicode hex="00D4"/>
  <outline>
    <contour>
      <point x="736" y="-75" type="move" name="below"/>
    </contour>
    <component base="CapCircumflex" xOffset="345"/>
    <component base="O"/>
  </outline>
</glyph>
<glyph name="Otilde" format="1">
  <advance width="1461"/>
  <unicode hex="00D5"/>
  <outline>
    <contour>
      <point x="728" y="-75" type="move" name="below"/>
    </contour>
    <component base="CapTilde" xOffset="320"/>
    <component base="O"/>
  </outline>
</glyph>
<glyph name="Ugrave" format="1">
  <advance width="1497"/>
  <unicode hex="00D9"/>
  <outline>
    <contour>
      <point x="748" y="-75" type="move" name="below"/>
    </contour>
    <component base="CapGrave" xOffset="275"/>
    <component base="U"/>
  </outline>
</glyph>
<glyph name="Uacute" format="1">
  <advance width="1497"/>
  <unicode hex="00DA"/>
  <outline>
    <contour>
      <point x="764" y="-75" type="move" name="below"/>
    </contour>
    <component base="CapAcute" xOffset="537"/>
    <component base="U"/>
  </outline>
</glyph>
<glyph name="Udieresis" format="1">
  <advance width="1497"/>
  <unicode hex="00DC"/>
  <outline>
    <contour>
      <point x="756" y="-75" type="move" name="below"/>
    </contour>
    <component base="CapDieresis" xOffset="376"/>
    <component base="U"/>
  </outline>
</glyph>
<glyph name="agrave" format="1">
  <advance width="797"/>
  <unicode hex="00E0"/>
  <outline>
    <contour>
      <point x="366" y="-75" type="move" name="below"/>
    </contour>
    <component base="grave" xOffset="4"/>
    <component base="a"/>
  </outline>
</glyph>
<glyph name="aacute" format="1">
  <advance width="797"/>
  <unicode hex="00E1"/>
  <outline>
    <contour>
      <point x="380" y="-75" type="move" name="below"/>
    </contour>
    <component base="acute" xOffset="199"/>
    <component base="a"/>
  </outline>
</glyph>
<glyph name="adieresis" format="1">
  <advance width="797"/>
  <unicode hex="00E4"/>
  <outline>
    <contour>
      <point x="390" y="1185" type="move" name="above"/>
    </contour>
    <contour>
      <point x="380" y="-75" type="move" name="below"/>
    </contour>
    <component base="dieresis" xOffset="-15"/>
    <component base="a"/>
  </outline>
</glyph>
<glyph name="aring" format="1">
  <advance width="797"/>
  <unicode hex="00E5"/>
  <outline>
    <contour>
      <point x="380" y="-75" type="move" name="below"/>
    </contour>
    <contour>
      <point x="387" y="1400" type="move" name="above"/>
    </contour>
    <component base="a"/>
    <component base="ring" xOffset="18"/>
  </outline>
</glyph>
<glyph name="egrave" format="1">
  <advance width="838"/>
  <unicode hex="00E8"/>
  <outline>
    <contour>
      <point x="440" y="-75" type="move" name="below"/>
    </contour>
    <component base="grave" xOffset="73"/>
    <component base="e"/>
  </outline>
</glyph>
<glyph name="ecircumflex" format="1">
  <advance width="838"/>
  <unicode hex="00EA"/>
  <outline>
    <contour>
      <point x="440" y="-75" type="move" name="below"/>
    </contour>
    <component base="circumflex" xOffset="63"/>
    <component base="e"/>
  </outline>
</glyph>
<glyph name="edieresis" format="1">
  <advance width="838"/>
  <unicode hex="00EB"/>
  <outline>
    <contour>
      <point x="432" y="1185" type="move" name="above"/>
    </contour>
    <contour>
      <point x="440" y="-75" type="move" name="below"/>
    </contour>
    <component base="dieresis" xOffset="24"/>
    <component base="e"/>
  </outline>
</glyph>
<glyph name="igrave" format="1">
  <advance width="524"/>
  <unicode hex="00EC"/>
  <outline>
    <contour>
      <point x="276" y="-75" type="move" name="below"/>
    </contour>
    <component base="grave" xOffset="-97"/>
    <component base="dotlessi"/>
  </outline>
</glyph>
<glyph name="iacute" format="1">
  <advance width="524"/>
  <unicode hex="00ED"/>
  <outline>
    <contour>
      <point x="276" y="-75" type="move" name="below"/>
    </contour>
    <component base="acute" xOffset="20"/>
    <component base="dotlessi"/>
  </outline>
</glyph>
<glyph name="icircumflex" format="1">
  <advance width="524"/>
  <unicode hex="00EE"/>
  <outline>
    <contour>
      <point x="276" y="-75" type="move" name="below"/>
    </contour>
    <component base="circumflex" xOffset="-108"/>
    <component base="dotlessi"/>
  </outline>
</glyph>
<glyph name="idieresis" format="1">
  <advance width="524"/>
  <unicode hex="00EF"/>
  <outline>
    <contour>
      <point x="264" y="1185" type="move" name="above"/>
    </contour>
    <contour>
      <point x="276" y="-75" type="move" name="below"/>
    </contour>
    <component base="dieresis" xOffset="-132"/>
    <component base="dotlessi"/>
  </outline>
</glyph>
<glyph name="ograve" format="1">
  <advance width="995"/>
  <unicode hex="00F2"/>
  <outline>
    <contour>
      <point x="510" y="-75" type="move" name="below"/>
    </contour>
    <component base="grave" xOffset="110"/>
    <component base="o"/>
  </outline>
</glyph>
<glyph name="oacute" format="1">
  <advance width="995"/>
  <unicode hex="00F3"/>
  <outline>
    <contour>
      <point x="510" y="-75" type="move" name="below"/>
    </contour>
    <component base="acute" xOffset="270"/>
    <component base="o"/>
  </outline>
</glyph>
<glyph name="ocircumflex" format="1">
  <advance width="995"/>
  <unicode hex="00F4"/>
  <outline>
    <contour>
      <point x="510" y="-75" type="move" name="below"/>
    </contour>
    <component base="circumflex" xOffset="119"/>
    <component base="o"/>
  </outline>
</glyph>
<glyph name="odieresis" format="1">
  <advance width="995"/>
  <unicode hex="00F6"/>
  <outline>
    <contour>
      <point x="483" y="1185" type="move" name="above"/>
    </contour>
    <contour>
      <point x="510" y="-75" type="move" name="below"/>
    </contour>
    <component base="dieresis" xOffset="93"/>
    <component base="o"/>
  </outline>
</glyph>
<glyph name="ugrave" format="1">
  <advance width="1036"/>
  <unicode hex="00F9"/>
  <outline>
    <contour>
      <point x="522" y="-75" type="move" name="below"/>
    </contour>
    <component base="grave" xOffset="123"/>
    <component base="u"/>
  </outline>
</glyph>
<glyph name="uacute" format="1">
  <advance width="1036"/>
  <unicode hex="00FA"/>
  <outline>
    <contour>
      <point x="522" y="-75" type="move" name="below"/>
    </contour>
    <component base="acute" xOffset="284"/>
    <component base="u"/>
  </outline>
</glyph>
<glyph name="ucircumflex" format="1">
  <advance width="1036"/>
  <unicode hex="00FB"/>
  <outline>
    <contour>
      <point x="522" y="-75" type="move" name="below"/>
    </contour>
    <component base="circumflex" xOffset="98"/>
    <component base="u"/>
  </outline>
</glyph>
<glyph name="udieresis" format="1">
  <advance width="1036"/>
  <unicode hex="00FC"/>
  <outline>
    <contour>
      <point x="504" y="1185" type="move" name="above"/>
    </contour>
    <contour>
      <point x="522" y="-75" type="move" name="below"/>
    </contour>
    <component base="dieresis" xOffset="96"/>
    <component base="u"/>
  </outline>
</glyph>
<glyph name="yacute" format="1">
  <advance width="838"/>
  <unicode hex="00FD"/>
  <outline>
    <contour>
      <point x="360" y="-597" type="move" name="below"/>
    </contour>
    <component base="acute" xOffset="205"/>
    <component base="y"/>
  </outline>
</glyph>
<glyph name="ydieresis" format="1">
  <advance width="838"/>
  <unicode hex="00FF"/>
  <outline>
    <contour>
      <point x="360" y="-597" type="move" name="below"/>
    </contour>
    <component base="dieresis"/>
    <component base="y"/>
  </outline>
</glyph>
<glyph name="abreve" format="1">
  <advance width="797"/>
  <unicode hex="0103"/>
  <outline>
    <contour>
      <point x="392" y="1265" type="move" name="above"/>
    </contour>
    <component base="breve" xOffset="27"/>
    <component base="a"/>
  </outline>
</glyph>
<glyph name="Emacron" format="1">
  <advance width="1235"/>
  <unicode hex="0112"/>
  <outline>
    <contour>
      <point x="594" y="-75" type="move" name="below"/>
    </contour>
    <component base="CapMacron" xOffset="264"/>
    <component base="E"/>
  </outline>
</glyph>
<glyph name="emacron" format="1">
  <advance width="838"/>
  <unicode hex="0113"/>
  <outline>
    <contour>
      <point x="469" y="1265" type="move" name="above"/>
    </contour>
    <component base="macron" xOffset="157"/>
    <component base="e"/>
  </outline>
</glyph>
<glyph name="Ebreve" format="1">
  <advance width="1235"/>
  <unicode hex="0114"/>
  <outline>
    <contour>
      <point x="594" y="-75" type="move" name="below"/>
    </contour>
    <component base="breve" xOffset="265" yOffset="503"/>
    <component base="E"/>
  </outline>
</glyph>
<glyph name="ebreve" format="1">
  <advance width="838"/>
  <unicode hex="0115"/>
  <outline>
    <contour>
      <point x="459" y="1265" type="move" name="above"/>
    </contour>
    <component base="breve" xOffset="79"/>
    <component base="e"/>
  </outline>
</glyph>
<glyph name="Imacron" format="1">
  <advance width="683"/>
  <unicode hex="012A"/>
  <outline>
    <contour>
      <point x="339" y="-75" type="move" name="below"/>
    </contour>
    <component base="macron" xOffset="44" yOffset="503"/>
    <component base="I"/>
  </outline>
</glyph>
<glyph name="imacron" format="1">
  <advance width="524"/>
  <unicode hex="012B"/>
  <outline>
    <contour>
      <point x="282" y="1265" type="move" name="above"/>
    </contour>
    <component base="macron" xOffset="-29"/>
    <component base="dotlessi"/>
  </outline>
</glyph>
<glyph name="Ibreve" format="1">
  <advance width="683"/>
  <unicode hex="012C"/>
  <outline>
    <contour>
      <point x="339" y="-75" type="move" name="below"/>
    </contour>
    <component base="breve" xOffset="-22" yOffset="503"/>
    <component base="I"/>
  </outline>
</glyph>
<glyph name="ibreve" format="1">
  <advance width="524"/>
  <unicode hex="012D"/>
  <outline>
    <contour>
      <point x="289" y="1265" type="move" name="above"/>
    </contour>
    <component base="breve" xOffset="-89"/>
    <component base="dotlessi"/>
  </outline>
</glyph>
<glyph name="omacron" format="1">
  <advance width="995"/>
  <unicode hex="014D"/>
  <outline>
    <contour>
      <point x="511" y="1265" type="move" name="above"/>
    </contour>
    <component base="macron" xOffset="207"/>
    <component base="o"/>
  </outline>
</glyph>
<glyph name="Obreve" format="1">
  <advance width="1461"/>
  <unicode hex="014E"/>
  <outline>
    <contour>
      <point x="732" y="-75" type="move" name="below"/>
    </contour>
    <component base="breve" xOffset="371" yOffset="503"/>
    <component base="O"/>
  </outline>
</glyph>
<glyph name="obreve" format="1">
  <advance width="995"/>
  <unicode hex="014F"/>
  <outline>
    <contour>
      <point x="521" y="1265" type="move" name="above"/>
    </contour>
    <component base="breve" xOffset="144"/>
    <component base="o"/>
  </outline>
</glyph>
<glyph name="scaron" format="1">
  <advance width="707"/>
  <unicode hex="0161"/>
  <outline>
    <contour>
      <point x="395" y="1340" type="move" name="above"/>
    </contour>
    <component base="s"/>
    <component base="caron"/>
  </outline>
</glyph>
<glyph name="Tcommaaccent" format="1">
  <advance width="1321"/>
  <unicode hex="0162"/>
  <outline>
    <contour>
      <point x="576" y="186" type="qcurve"/>
      <point x="576" y="1236" type="line"/>
      <point x="576" y="1282"/>
      <point x="528" y="1282" type="qcurve"/>
      <point x="376" y="1282" type="line"/>
      <point x="111" y="1282"/>
      <point x="111" y="1006" type="qcurve"/>
      <point x="111" y="992"/>
      <point x="73" y="992" type="qcurve"/>
      <point x="35" y="992"/>
      <point x="35" y="1006" type="qcurve"/>
      <point x="35" y="1325" type="line"/>
      <point x="35" y="1358"/>
      <point x="113" y="1358" type="qcurve"/>
      <point x="214" y="1358"/>
      <point x="377" y="1355.5" type="qcurve"/>
      <point x="540" y="1353"/>
      <point x="656" y="1353" type="qcurve"/>
      <point x="772" y="1353"/>
      <point x="934" y="1355.5" type="qcurve"/>
      <point x="1096" y="1358"/>
      <point x="1209" y="1358" type="qcurve"/>
      <point x="1287" y="1358"/>
      <point x="1287" y="1325" type="qcurve"/>
      <point x="1287" y="1006" type="line"/>
      <point x="1287" y="992"/>
      <point x="1249" y="992" type="qcurve"/>
      <point x="1211" y="992"/>
      <point x="1211" y="1006" type="qcurve"/>
      <point x="1211" y="1282"/>
      <point x="949" y="1282" type="qcurve"/>
      <point x="787" y="1282" type="line"/>
      <point x="736" y="1282"/>
      <point x="736" y="1236" type="qcurve"/>
      <point x="736" y="186" type="line"/>
      <point x="736" y="69"/>
      <point x="925" y="69" type="qcurve"/>
      <point x="939" y="69"/>
      <point x="939" y="31" type="qcurve"/>
      <point x="939" y="-7"/>
      <point x="925" y="-7" type="qcurve"/>
      <point x="841.287" y="-0.6305"/>
      <point x="683.884" y="-0.0567901" type="qcurve"/>
      <point x="631" y="-73" type="line"/>
      <point x="626" y="-80"/>
      <point x="626" y="-87.5" type="qcurve"/>
      <point x="626" y="-95"/>
      <point x="637" y="-103" type="qcurve"/>
      <point x="745" y="-176"/>
      <point x="745" y="-261" type="qcurve"/>
      <point x="745" y="-346"/>
      <point x="678" y="-396" type="qcurve"/>
      <point x="611" y="-446"/>
      <point x="532" y="-446" type="qcurve"/>
      <point x="413" y="-446"/>
      <point x="413" y="-374" type="qcurve"/>
      <point x="413" y="-321"/>
      <point x="464" y="-321" type="qcurve"/>
      <point x="487" y="-321"/>
      <point x="522.5" y="-350.5" type="qcurve"/>
      <point x="558" y="-380"/>
      <point x="572" y="-380" type="qcurve"/>
      <point x="628" y="-380"/>
      <point x="628" y="-312.5" type="qcurve"/>
      <point x="628" y="-245"/>
      <point x="522" y="-189" type="qcurve"/>
      <point x="503" y="-179"/>
      <point x="503" y="-169.5" type="qcurve"/>
      <point x="503" y="-160"/>
      <point x="508" y="-152" type="qcurve"/>
      <point x="611.181" y="-0.0943079" type="line"/>
      <point x="460.321" y="-0.8125"/>
      <point x="379" y="-7" type="qcurve"/>
      <point x="365" y="-7"/>
      <point x="365" y="31" type="qcurve"/>
      <point x="365" y="69"/>
      <point x="379" y="69" type="qcurve"/>
      <point x="576" y="69"/>
    </contour>
  </outline>
</glyph>
<glyph name="Ubreve" format="1">
  <advance width="1497"/>
  <unicode hex="016C"/>
  <outline>
    <contour>
      <point x="756" y="-75" type="move" name="below"/>
    </contour>
    <component base="breve" xOffset="401" yOffset="503"/>
    <component base="U"/>
  </outline>
</glyph>
<glyph name="ubreve" format="1">
  <advance width="1036"/>
  <unicode hex="016D"/>
  <outline>
    <contour>
      <point x="517" y="1265" type="move" name="above"/>
    </contour>
    <component base="breve" xOffset="141"/>
    <component base="u"/>
  </outline>
</glyph>
<glyph name="longs" format="1">
  <advance width="553"/>
  <unicode hex="017F"/>
  <outline>
    <contour>
      <point x="568" y="1489" type="move" name="above"/>
    </contour>
    <contour>
      <point x="90" y="713" type="line"/>
      <point x="75" y="713"/>
      <point x="75" y="740.5" type="qcurve"/>
      <point x="75" y="768"/>
      <point x="90" y="768" type="qcurve"/>
      <point x="125" y="768"/>
      <point x="163" y="805" type="qcurve"/>
      <point x="201" y="842"/>
      <point x="201" y="924" type="qcurve"/>
      <point x="201" y="1176"/>
      <point x="342" y="1331.5" type="qcurve"/>
      <point x="483" y="1487"/>
      <point x="672" y="1487" type="qcurve"/>
      <point x="795" y="1487"/>
      <point x="839" y="1430" type="qcurve"/>
      <point x="858" y="1406"/>
      <point x="858" y="1369.5" type="qcurve"/>
      <point x="858" y="1333"/>
      <point x="826" y="1308.5" type="qcurve"/>
      <point x="794" y="1284"/>
      <point x="772" y="1284" type="qcurve"/>
      <point x="716" y="1284"/>
      <point x="670.5" y="1338.5" type="qcurve"/>
      <point x="625" y="1393"/>
      <point x="571" y="1393" type="qcurve"/>
      <point x="479" y="1393"/>
      <point x="416.5" y="1317" type="qcurve"/>
      <point x="354" y="1241"/>
      <point x="354" y="1002" type="qcurve"/>
      <point x="354" y="127" type="line"/>
      <point x="354" y="49"/>
      <point x="498" y="49" type="qcurve"/>
      <point x="513" y="49"/>
      <point x="513" y="20.5" type="qcurve"/>
      <point x="513" y="-8"/>
      <point x="498" y="-8" type="qcurve"/>
      <point x="415" y="0"/>
      <point x="290" y="0" type="qcurve"/>
      <point x="165" y="0"/>
      <point x="84" y="-8" type="qcurve"/>
      <point x="67" y="-8"/>
      <point x="67" y="20.5" type="qcurve"/>
      <point x="67" y="49"/>
      <point x="84" y="49" type="qcurve"/>
      <point x="201" y="49"/>
      <point x="201" y="127" type="qcurve"/>
      <point x="201" y="692" type="line"/>
      <point x="201" y="713"/>
      <point x="176" y="713" type="qcurve"/>
    </contour>
  </outline>
</glyph>
<glyph name="uni01E2" format="1">
  <advance width="1742"/>
  <unicode hex="01E2"/>
  <outline>
    <contour>
      <point x="879" y="-75" type="move" name="below"/>
    </contour>
    <component base="CapMacron" xOffset="680"/>
    <component base="AE"/>
  </outline>
</glyph>
<glyph name="uni01E3" format="1">
  <advance width="1145"/>
  <unicode hex="01E3"/>
  <outline>
    <contour>
      <point x="540" y="-75" type="move" name="below"/>
    </contour>
    <contour>
      <point x="570" y="1265" type="move" name="above"/>
    </contour>
    <component base="macron" xOffset="271"/>
    <component base="ae"/>
  </outline>
</glyph>
<glyph name="AEacute" format="1">
  <advance width="1742"/>
  <unicode hex="01FC"/>
  <outline>
    <contour>
      <point x="879" y="-75" type="move" name="below"/>
    </contour>
    <component base="CapAcute" xOffset="836"/>
    <component base="AE"/>
  </outline>
</glyph>
<glyph name="aeacute" format="1">
  <advance width="1145"/>
  <unicode hex="01FD"/>
  <outline>
    <contour>
      <point x="540" y="-75" type="move" name="below"/>
    </contour>
    <component base="acute" xOffset="397"/>
    <component base="ae"/>
  </outline>
</glyph>
<glyph name="Oslashacute" format="1">
  <advance width="1461"/>
  <unicode hex="01FE"/>
  <outline>
    <contour>
      <point x="1113" y="1776" type="qcurve" smooth="yes"/>
      <point x="664" y="1535" type="line" smooth="yes"/>
      <point x="644" y="1524"/>
      <point x="610" y="1524"/>
      <point x="593" y="1553"/>
      <point x="593" y="1582"/>
      <point x="617" y="1598" type="qcurve"/>
      <point x="1031" y="1897" type="line" smooth="yes"/>
      <point x="1041" y="1904"/>
      <point x="1079" y="1904"/>
      <point x="1135" y="1831"/>
      <point x="1135" y="1788"/>
    </contour>
    <contour>
      <point x="232" y="-6" type="line" smooth="yes"/>
      <point x="229" y="-9"/>
      <point x="225" y="-9" type="qcurve" smooth="yes"/>
      <point x="213" y="-9"/>
      <point x="165" y="37"/>
      <point x="165" y="46" type="qcurve" smooth="yes"/>
      <point x="165" y="49"/>
      <point x="166" y="50" type="qcurve" smooth="yes"/>
      <point x="271" y="175" type="line"/>
      <point x="270" y="177"/>
      <point x="268" y="178" type="qcurve" smooth="yes"/>
      <point x="91" y="383"/>
      <point x="91" y="667" type="qcurve" smooth="yes"/>
      <point x="91" y="930"/>
      <point x="443" y="1385"/>
      <point x="740" y="1385" type="qcurve" smooth="yes"/>
      <point x="975" y="1385"/>
      <point x="1150" y="1222" type="qcurve"/>
      <point x="1236" y="1325" type="line" smooth="yes"/>
      <point x="1240" y="1329"/>
      <point x="1246" y="1329" type="qcurve" smooth="yes"/>
      <point x="1258" y="1329"/>
      <point x="1305" y="1291"/>
      <point x="1305" y="1277" type="qcurve" smooth="yes"/>
      <point x="1305" y="1273"/>
      <point x="1303" y="1269" type="qcurve"/>
      <point x="1210" y="1159" type="line"/>
      <point x="1383" y="956"/>
      <point x="1383" y="663" type="qcurve" smooth="yes"/>
      <point x="1383" y="407"/>
      <point x="1035" y="-27"/>
      <point x="735" y="-27" type="qcurve" smooth="yes"/>
      <point x="495" y="-27"/>
      <point x="332" y="113" type="qcurve"/>
    </contour>
    <contour>
      <point x="1055" y="1109" type="line"/>
      <point x="907" y="1314"/>
      <point x="727" y="1314" type="qcurve" smooth="yes"/>
      <point x="517" y="1314"/>
      <point x="282" y="952"/>
      <point x="282" y="726" type="qcurve" smooth="yes"/>
      <point x="282" y="474"/>
      <point x="381" y="306" type="qcurve"/>
    </contour>
    <contour>
      <point x="1103" y="1031" type="qcurve"/>
      <point x="432" y="232" type="line"/>
      <point x="582" y="48"/>
      <point x="749" y="48" type="qcurve" smooth="yes"/>
      <point x="961" y="48"/>
      <point x="1192" y="394"/>
      <point x="1192" y="647" type="qcurve" smooth="yes"/>
      <point x="1192" y="865"/>
    </contour>
  </outline>
</glyph>
<glyph name="oslashacute" format="1">
  <advance width="995"/>
  <unicode hex="01FF"/>
  <outline>
    <contour>
      <point x="721" y="1336" type="qcurve"/>
      <point x="542" y="1051" type="line"/>
      <point x="524" y="1022"/>
      <point x="501" y="1022" type="qcurve"/>
      <point x="468" y="1022"/>
      <point x="468" y="1059" type="qcurve"/>
      <point x="468" y="1071"/>
      <point x="473" y="1081" type="qcurve"/>
      <point x="608" y="1388" type="line"/>
      <point x="614" y="1401"/>
      <point x="633" y="1401" type="qcurve"/>
      <point x="667" y="1401"/>
      <point x="703" y="1372" type="qcurve"/>
      <point x="723" y="1356"/>
      <point x="723" y="1343" type="qcurve"/>
      <point x="723" y="1340"/>
    </contour>
    <contour>
      <point x="924" y="420" type="qcurve"/>
      <point x="924" y="244"/>
      <point x="813" y="110.5" type="qcurve"/>
      <point x="702" y="-23"/>
      <point x="516" y="-23" type="qcurve"/>
      <point x="381" y="-23"/>
      <point x="279" y="53" type="qcurve"/>
      <point x="196" y="-66" type="line"/>
      <point x="193" y="-71"/>
      <point x="186" y="-71" type="qcurve"/>
      <point x="175" y="-71"/>
      <point x="155" y="-55.5" type="qcurve"/>
      <point x="135" y="-40"/>
      <point x="135" y="-30" type="qcurve"/>
      <point x="135" y="-27"/>
      <point x="137" y="-25" type="qcurve"/>
      <point x="225" y="100" type="line"/>
      <point x="216" y="109"/>
      <point x="208" y="119" type="qcurve"/>
      <point x="84" y="260"/>
      <point x="84" y="428" type="qcurve"/>
      <point x="84" y="596"/>
      <point x="209" y="733" type="qcurve"/>
      <point x="334" y="870"/>
      <point x="508" y="870" type="qcurve"/>
      <point x="626" y="870"/>
      <point x="720" y="807" type="qcurve"/>
      <point x="796" y="915" type="line"/>
      <point x="800" y="920"/>
      <point x="807" y="920" type="qcurve"/>
      <point x="818" y="920"/>
      <point x="836.5" y="905.5" type="qcurve"/>
      <point x="855" y="891"/>
      <point x="855" y="880" type="qcurve"/>
      <point x="855" y="877"/>
      <point x="853" y="874" type="qcurve"/>
      <point x="775" y="762" type="line"/>
      <point x="788" y="750"/>
      <point x="802" y="734" type="qcurve"/>
      <point x="924" y="596"/>
    </contour>
    <contour>
      <point x="664" y="726" type="line"/>
      <point x="592" y="811"/>
      <point x="506" y="811" type="qcurve"/>
      <point x="410" y="811"/>
      <point x="328.5" y="705.5" type="qcurve"/>
      <point x="247" y="600"/>
      <point x="247" y="422" type="qcurve"/>
      <point x="247" y="288"/>
      <point x="293" y="198" type="qcurve"/>
    </contour>
    <contour>
      <point x="707" y="665" type="qcurve"/>
      <point x="336" y="135" type="line"/>
      <point x="414" y="43"/>
      <point x="504" y="43" type="qcurve"/>
      <point x="598" y="43"/>
      <point x="679.5" y="144.5" type="qcurve"/>
      <point x="761" y="246"/>
      <point x="761" y="422" type="qcurve"/>
      <point x="761" y="568"/>
    </contour>
  </outline>
</glyph>
<glyph name="uni021F" format="1">
  <advance width="1094"/>
  <unicode hex="021F"/>
  <outline>
    <contour>
      <point x="921" y="127" type="line" smooth="yes"/>
      <point x="921" y="49"/>
      <point x="1048" y="49" type="qcurve" smooth="yes"/>
      <point x="1062" y="49"/>
      <point x="1062" y="-8"/>
      <point x="1048" y="-8" type="qcurve"/>
      <point x="967" y="0"/>
      <point x="734" y="0"/>
      <point x="655" y="-8" type="qcurve"/>
      <point x="641" y="-8"/>
      <point x="641" y="49"/>
      <point x="655" y="49" type="qcurve" smooth="yes"/>
      <point x="768" y="49"/>
      <point x="768" y="127" type="qcurve" smooth="yes"/>
      <point x="768" y="547" type="line" smooth="yes"/>
      <point x="768" y="644"/>
      <point x="650" y="780"/>
      <point x="566" y="780" type="qcurve" smooth="yes"/>
      <point x="482" y="780"/>
      <point x="354" y="678"/>
      <point x="354" y="629" type="qcurve" smooth="yes"/>
      <point x="354" y="127" type="line" smooth="yes"/>
      <point x="354" y="49"/>
      <point x="465" y="49" type="qcurve" smooth="yes"/>
      <point x="479" y="49"/>
      <point x="479" y="-8"/>
      <point x="465" y="-8" type="qcurve"/>
      <point x="360" y="0"/>
      <point x="160" y="0"/>
      <point x="80" y="-8" type="qcurve"/>
      <point x="66" y="-8"/>
      <point x="66" y="49"/>
      <point x="80" y="49" type="qcurve" smooth="yes"/>
      <point x="201" y="49"/>
      <point x="201" y="127" type="qcurve" smooth="yes"/>
      <point x="201" y="1174" type="line" smooth="yes"/>
      <point x="201" y="1313"/>
      <point x="109" y="1313" type="qcurve" smooth="yes"/>
      <point x="92" y="1313"/>
      <point x="92" y="1368"/>
      <point x="109" y="1368" type="qcurve" smooth="yes"/>
      <point x="142" y="1368"/>
      <point x="271" y="1436"/>
      <point x="304" y="1462" type="qcurve" smooth="yes"/>
      <point x="336" y="1488"/>
      <point x="348" y="1487" type="qcurve" smooth="yes"/>
      <point x="360" y="1487"/>
      <point x="360" y="1470" type="qcurve" smooth="yes"/>
      <point x="354" y="1363"/>
      <point x="354" y="1305" type="qcurve" smooth="yes"/>
      <point x="354" y="791" type="line" smooth="yes"/>
      <point x="354" y="766"/>
      <point x="370" y="766" type="qcurve" smooth="yes"/>
      <point x="379" y="766"/>
      <point x="387" y="774" type="qcurve" smooth="yes"/>
      <point x="478" y="870"/>
      <point x="628" y="870" type="qcurve" smooth="yes"/>
      <point x="773" y="870"/>
      <point x="921" y="659"/>
      <point x="921" y="549" type="qcurve" smooth="yes"/>
    </contour>
    <contour>
      <point x="872" y="1796" type="qcurve" smooth="yes"/>
      <point x="612" y="1547" type="line" smooth="yes"/>
      <point x="589" y="1525"/>
      <point x="568" y="1525" type="qcurve" smooth="yes"/>
      <point x="547" y="1525"/>
      <point x="524" y="1547" type="qcurve" smooth="yes"/>
      <point x="264" y="1796" type="line" smooth="yes"/>
      <point x="260" y="1800"/>
      <point x="260" y="1806" type="qcurve" smooth="yes"/>
      <point x="260" y="1812"/>
      <point x="276" y="1829"/>
      <point x="285" y="1829" type="qcurve" smooth="yes"/>
      <point x="290" y="1829"/>
      <point x="293" y="1827" type="qcurve" smooth="yes"/>
      <point x="534" y="1670" type="line" smooth="yes"/>
      <point x="552" y="1658"/>
      <point x="568" y="1658" type="qcurve" smooth="yes"/>
      <point x="583" y="1658"/>
      <point x="602" y="1670" type="qcurve" smooth="yes"/>
      <point x="848" y="1827" type="line" smooth="yes"/>
      <point x="850" y="1828"/>
      <point x="853" y="1828" type="qcurve" smooth="yes"/>
      <point x="861" y="1828"/>
      <point x="876" y="1810"/>
      <point x="876" y="1804" type="qcurve" smooth="yes"/>
      <point x="876" y="1798"/>
    </contour>
  </outline>
</glyph>
<glyph name="uni0232" format="1">
  <advance width="1235"/>
  <unicode hex="0232"/>
  <outline>
    <contour>
      <point x="603" y="-75" type="move" name="below"/>
    </contour>
    <component base="CapMacron" xOffset="264"/>
    <component base="Y"/>
  </outline>
</glyph>
<glyph name="uni0233" format="1">
  <advance width="838"/>
  <unicode hex="0233"/>
  <outline>
    <contour>
      <point x="360" y="-597" type="move" name="below"/>
    </contour>
    <contour>
      <point x="459" y="1265" type="move" name="above"/>
    </contour>
    <component base="macron" xOffset="140"/>
    <component base="y"/>
  </outline>
</glyph>
<glyph name="uni0237" format="1">
  <advance width="518"/>
  <unicode hex="0237"/>
  <outline>
    <contour>
      <point x="240" y="-594" type="move" name="below"/>
    </contour>
    <contour>
      <point x="270" y="900" type="move" name="above"/>
    </contour>
    <component base="uniF6BE"/>
  </outline>
</glyph>
<glyph name="breve" format="1">
  <advance width="737"/>
  <unicode hex="02D8"/>
  <outline>
    <contour>
      <point x="639" y="1295" type="qcurve"/>
      <point x="639" y="1020"/>
      <point x="369" y="1020" type="qcurve" smooth="yes"/>
      <point x="98" y="1020"/>
      <point x="98" y="1295" type="qcurve"/>
      <point x="106" y="1303"/>
      <point x="119" y="1303" type="qcurve" smooth="yes"/>
      <point x="129" y="1303"/>
      <point x="137" y="1295" type="qcurve"/>
      <point x="172" y="1131"/>
      <point x="369" y="1131" type="qcurve" smooth="yes"/>
      <point x="562" y="1131"/>
      <point x="600" y="1295" type="qcurve"/>
      <point x="608" y="1303"/>
      <point x="621" y="1303" type="qcurve" smooth="yes"/>
      <point x="631" y="1303"/>
    </contour>
  </outline>
</glyph>
<glyph name="uni0304" format="2">
  <unicode hex="0304"/>
  <anchor x="40.0" y="980" name="_Anchor-2"/>
  <anchor x="40.0" y="1265" name="Anchor-2"/>
  <anchor x="40.0" y="900" name="_above"/>
  <outline>
    <contour>
      <point x="226.0" y="1198" type="line" smooth="yes"/>
      <point x="254.0" y="1198.0"/>
      <point x="254.0" y="1104.0"/>
      <point x="222.0" y="1104" type="qcurve" smooth="yes"/>
      <point x="-224.0" y="1104" type="line" smooth="yes"/>
      <point x="-253.0" y="1104.0"/>
      <point x="-253.0" y="1198"/>
      <point x="-224.0" y="1198" type="qcurve" smooth="yes"/>
    </contour>
  </outline>
</glyph>
<glyph name="uni0306" format="2">
  <unicode hex="0306"/>
  <outline>
    <contour>
      <point x="270.0" y="1295.0" type="qcurve"/>
      <point x="270.0" y="1020.0"/>
      <point x="0.0" y="1020.0" type="qcurve" smooth="yes"/>
      <point x="-271.0" y="1020.0"/>
      <point x="-271.0" y="1295.0" type="qcurve"/>
      <point x="-263.0" y="1303.0"/>
      <point x="-240.0" y="1303.0"/>
      <point x="-232.0" y="1295.0" type="qcurve"/>
      <point x="-197.0" y="1131.0"/>
      <point x="0.0" y="1131.0" type="qcurve" smooth="yes"/>
      <point x="193.0" y="1131.0"/>
      <point x="231.0" y="1295.0" type="qcurve"/>
      <point x="239.0" y="1303.0"/>
      <point x="262.0" y="1303.0"/>
    </contour>
  </outline>
</glyph>
<glyph name="uni030D" format="2">
  <unicode hex="030D"/>
  <anchor x="-400" y="980" name="_Anchor-2"/>
  <anchor x="-400" y="1431" name="Anchor-2"/>
  <anchor x="-400" y="900" name="_above"/>
  <outline>
    <contour>
      <point x="-54.0" y="1410.0" type="line"/>
      <point x="56.0" y="1410.0" type="line"/>
      <point x="56.0" y="1020.0" type="line"/>
      <point x="-54.0" y="1020.0" type="line"/>
    </contour>
  </outline>
</glyph>
<glyph name="uni030E" format="2">
  <unicode hex="030E"/>
  <anchor x="-400" y="980" name="_Anchor-2"/>
  <anchor x="-400" y="1415" name="Anchor-2"/>
  <anchor x="-400" y="900" name="_above"/>
  <outline>
    <contour>
      <point x="61.0" y="1410.0" type="line"/>
      <point x="171.0" y="1410.0" type="line"/>
      <point x="171.0" y="1020.0" type="line"/>
      <point x="61.0" y="1020.0" type="line"/>
    </contour>
    <contour>
      <point x="-179.0" y="1410.0" type="line"/>
      <point x="-69.0" y="1410.0" type="line"/>
      <point x="-69.0" y="1020.0" type="line"/>
      <point x="-179.0" y="1020.0" type="line"/>
    </contour>
  </outline>
</glyph>
<glyph name="uni0311" format="2">
  <unicode hex="0311"/>
  <anchor x="-400" y="980" name="_Anchor-2"/>
  <anchor x="-400" y="1290" name="Anchor-2"/>
  <anchor x="-400" y="900" name="_above"/>
  <outline>
    <contour>
      <point x="270.0" y="1009.0" type="line"/>
      <point x="262.0" y="1001.0"/>
      <point x="251.0" y="1001.0" type="qcurve" smooth="yes"/>
      <point x="239.0" y="1001.0"/>
      <point x="231.0" y="1009.0" type="qcurve"/>
      <point x="193.0" y="1173.0"/>
      <point x="0.0" y="1173.0" type="qcurve" smooth="yes"/>
      <point x="-197.0" y="1173.0"/>
      <point x="-232.0" y="1009.0" type="qcurve"/>
      <point x="-240.0" y="1001.0"/>
      <point x="-264.0" y="1001.0"/>
      <point x="-269.0" y="1009.0" type="qcurve"/>
      <point x="-269.0" y="1069.0" type="line"/>
      <point x="-269.0" y="1284.2153015024307"/>
      <point x="0.0" y="1284.0" type="qcurve"/>
      <point x="270.0" y="1283.7792529286594"/>
      <point x="270.0" y="1021.0" type="qcurve" smooth="yes"/>
    </contour>
  </outline>
</glyph>
<glyph name="uni031D" format="2">
  <unicode hex="031D"/>
  <anchor x="-400" y="-75" name="_Anchor-3"/>
  <anchor x="-400" y="-475" name="Anchor-3"/>
  <anchor x="-400" y="-75" name="_below"/>
  <outline>
    <contour>
      <point x="197.0" y="-382.0" type="line"/>
      <point x="197.0" y="-477.0" type="line"/>
      <point x="-214.0" y="-477.0" type="line"/>
      <point x="-214.0" y="-382.0" type="line"/>
      <point x="-50.0" y="-382.0" type="line"/>
      <point x="-50.0" y="-195.0" type="line"/>
      <point x="45.0" y="-195.0" type="line"/>
      <point x="45.0" y="-382.0" type="line"/>
    </contour>
  </outline>
</glyph>
<glyph name="uni031F" format="2">
  <unicode hex="031F"/>
  <anchor x="-400" y="-75" name="_Anchor-3"/>
  <anchor x="-400" y="-550" name="Anchor-3"/>
  <anchor x="-400" y="-75" name="_below"/>
  <outline>
    <contour>
      <point x="213.0" y="-359.0" type="line"/>
      <point x="213.0" y="-454.0" type="line"/>
      <point x="49.0" y="-454.0" type="line"/>
      <point x="49.0" y="-618.0" type="line"/>
      <point x="-46.0" y="-618.0" type="line"/>
      <point x="-46.0" y="-454.0" type="line"/>
      <point x="-210.0" y="-454.0" type="line"/>
      <point x="-210.0" y="-359.0" type="line"/>
      <point x="-46.0" y="-359.0" type="line"/>
      <point x="-46.0" y="-195.0" type="line"/>
      <point x="49.0" y="-195.0" type="line"/>
      <point x="49.0" y="-359.0" type="line"/>
    </contour>
  </outline>
</glyph>
<glyph name="uni0320" format="2">
  <unicode hex="0320"/>
  <anchor x="-400" y="-75" name="_Anchor-3"/>
  <anchor x="-400" y="-425" name="Anchor-3"/>
  <anchor x="-400" y="-75" name="_below"/>
  <outline>
    <contour>
      <point x="299.0" y="-245.0" type="line" smooth="yes"/>
      <point x="315.0" y="-245.0"/>
      <point x="315.0" y="-302.0" type="qcurve" smooth="yes"/>
      <point x="315.0" y="-360.0"/>
      <point x="297.0" y="-360.0" type="qcurve" smooth="yes"/>
      <point x="-293.0" y="-360.0" type="line" smooth="yes"/>
      <point x="-308.0" y="-360.0"/>
      <point x="-308.0" y="-302.0" type="qcurve" smooth="yes"/>
      <point x="-308.0" y="-245.0"/>
      <point x="-293.0" y="-245.0" type="qcurve" smooth="yes"/>
    </contour>
  </outline>
</glyph>
<glyph name="uni0329" format="2">
  <unicode hex="0329"/>
  <anchor x="-400" y="-75" name="_Anchor-3"/>
  <anchor x="-400" y="-575" name="Anchor-3"/>
  <anchor x="-400" y="-75" name="_below"/>
  <outline>
    <contour>
      <point x="-57.0" y="-195.0" type="line"/>
      <point x="53.0" y="-195.0" type="line"/>
      <point x="53.0" y="-558.0" type="line"/>
      <point x="-57.0" y="-558.0" type="line"/>
    </contour>
  </outline>
</glyph>
<glyph name="uni032A" format="2">
  <unicode hex="032A"/>
  <anchor x="-400" y="-75" name="_Anchor-3"/>
  <anchor x="-400" y="-500" name="Anchor-3"/>
  <anchor x="-400" y="-75" name="_below"/>
  <outline>
    <contour>
      <point x="255.0" y="-458.0" type="line"/>
      <point x="160.0" y="-458.0" type="line"/>
      <point x="160.0" y="-290.0" type="line"/>
      <point x="-150.0" y="-290.0" type="line"/>
      <point x="-150.0" y="-458.0" type="line"/>
      <point x="-245.0" y="-458.0" type="line"/>
      <point x="-245.0" y="-195.0" type="line"/>
      <point x="255.0" y="-195.0" type="line"/>
    </contour>
  </outline>
</glyph>
<glyph name="uni0331" format="2">
  <unicode hex="0331"/>
  <anchor x="-400" y="-75" name="_Anchor-3"/>
  <anchor x="-400" y="-475" name="Anchor-3"/>
  <anchor x="-400" y="-75" name="_below"/>
  <outline>
    <contour>
      <point x="225.0" y="-245.0" type="line" smooth="yes"/>
      <point x="253.0" y="-245.0"/>
      <point x="253.0" y="-339.0"/>
      <point x="221.0" y="-339.0" type="qcurve" smooth="yes"/>
      <point x="-225.0" y="-339.0" type="line" smooth="yes"/>
      <point x="-254.0" y="-339.0"/>
      <point x="-254.0" y="-245.0"/>
      <point x="-225.0" y="-245.0" type="qcurve" smooth="yes"/>
    </contour>
  </outline>
</glyph>
<glyph name="uni033F" format="2">
  <unicode hex="033F"/>
  <anchor x="-400" y="1185" name="_Anchor-2"/>
  <anchor x="-400" y="1750" name="Anchor-2"/>
  <anchor x="-400" y="1185" name="_above"/>
  <outline>
    <contour>
      <point x="429.0" y="1056.0" type="qcurve" smooth="yes"/>
      <point x="-433.0" y="1056.0" type="line" smooth="yes"/>
      <point x="-455.0" y="1056.0"/>
      <point x="-455.0" y="1113.0" type="qcurve" smooth="yes"/>
      <point x="-455.0" y="1168.0"/>
      <point x="-433.0" y="1168.0" type="qcurve" smooth="yes"/>
      <point x="429.0" y="1168.0" type="line" smooth="yes"/>
      <point x="452.0" y="1168.0"/>
      <point x="452.0" y="1113.0" type="qcurve" smooth="yes"/>
      <point x="452.0" y="1056.0"/>
    </contour>
    <contour>
      <point x="429.0" y="1284.0" type="qcurve" smooth="yes"/>
      <point x="-433.0" y="1284.0" type="line" smooth="yes"/>
      <point x="-455.0" y="1284.0"/>
      <point x="-455.0" y="1341.0" type="qcurve" smooth="yes"/>
      <point x="-455.0" y="1396.0"/>
      <point x="-433.0" y="1396.0" type="qcurve" smooth="yes"/>
      <point x="429.0" y="1396.0" type="line" smooth="yes"/>
      <point x="452.0" y="1396.0"/>
      <point x="452.0" y="1341.0" type="qcurve" smooth="yes"/>
      <point x="452.0" y="1284.0"/>
    </contour>
  </outline>
</glyph>
<glyph name="uni0346" format="2">
  <unicode hex="0346"/>
  <anchor x="-400" y="980" name="_Anchor-2"/>
  <anchor x="-400" y="1320" name="Anchor-2"/>
  <anchor x="-400" y="900" name="_above"/>
  <outline>
    <contour>
      <point x="248.0" y="1024.0" type="line"/>
      <point x="153.0" y="1024.0" type="line"/>
      <point x="153.0" y="1192.0" type="line"/>
      <point x="-157.0" y="1192.0" type="line"/>
      <point x="-157.0" y="1024.0" type="line"/>
      <point x="-252.0" y="1024.0" type="line"/>
      <point x="-252.0" y="1287.0" type="line"/>
      <point x="248.0" y="1287.0" type="line"/>
    </contour>
  </outline>
</glyph>
<glyph name="uni0349" format="2">
  <unicode hex="0349"/>
  <anchor x="-400" y="-75" name="_below"/>
  <outline>
    <contour>
      <point x="-188.0" y="-290.0" type="line"/>
      <point x="-188.0" y="-195.0" type="line"/>
      <point x="95.0" y="-195.0" type="line"/>
      <point x="95.0" y="-478.0" type="line"/>
      <point x="0.0" y="-478.0" type="line"/>
      <point x="0.0" y="-290.0" type="line"/>
    </contour>
  </outline>
</glyph>
<glyph name="uni0350" format="2">
  <unicode hex="0350"/>
  <anchor x="-400" y="980" name="_Anchor-2"/>
  <anchor x="-400" y="1388" name="Anchor-2"/>
  <anchor x="-400" y="900" name="_above"/>
  <outline>
    <contour>
      <point x="155.0" y="1156.0" type="line"/>
      <point x="-126.0" y="1023.0" type="line"/>
      <point x="-126.0" y="1093.0" type="line"/>
      <point x="67.0" y="1183.0" type="line"/>
      <point x="67.0" y="1186.0" type="line"/>
      <point x="-126.0" y="1277.0" type="line"/>
      <point x="-126.0" y="1345.0" type="line"/>
      <point x="155.0" y="1211.0" type="line"/>
    </contour>
  </outline>
</glyph>
<glyph name="uni0351" format="2">
  <unicode hex="0351"/>
  <anchor x="-400" y="980" name="_Anchor-2"/>
  <anchor x="-400" y="1364" name="Anchor-2"/>
  <anchor x="-400" y="900" name="_above"/>
  <outline>
    <contour>
      <point x="73.0" y="1372.0" type="qcurve"/>
      <point x="73.0" y="1282.0" type="line"/>
      <point x="-30.0" y="1282.0"/>
      <point x="-30.0" y="1177.0" type="qcurve" smooth="yes"/>
      <point x="-30.0" y="1072.0"/>
      <point x="73.0" y="1072.0" type="qcurve"/>
      <point x="73.0" y="982.0" type="line"/>
      <point x="-122.0" y="982.0"/>
      <point x="-122.0" y="1372.0"/>
    </contour>
  </outline>
</glyph>
<glyph name="uni0363" format="2">
  <unicode hex="0363"/>
  <outline>
    <contour>
      <point x="38.0" y="1169.0" type="qcurve" smooth="yes"/>
      <point x="38.0" y="1288.0" type="line" smooth="yes"/>
      <point x="38.0" y="1300.0"/>
      <point x="30.0" y="1300.0" type="qcurve" smooth="yes"/>
      <point x="26.0" y="1300.0"/>
      <point x="-3.0" y="1285.0" type="qcurve" smooth="yes"/>
      <point x="-97.0" y="1238.0"/>
      <point x="-97.0" y="1163.0" type="qcurve" smooth="yes"/>
      <point x="-97.0" y="1136.0"/>
      <point x="-62.0" y="1103.0"/>
      <point x="-31.0" y="1103.0" type="qcurve" smooth="yes"/>
      <point x="-9.0" y="1103.0"/>
      <point x="38.0" y="1149.0"/>
    </contour>
    <contour>
      <point x="202.0" y="1128.0" type="qcurve"/>
      <point x="214.0" y="1126.0"/>
      <point x="218.0" y="1111.0" type="qcurve"/>
      <point x="218.0" y="1109.0"/>
      <point x="217.0" y="1108.0" type="qcurve" smooth="yes"/>
      <point x="194.0" y="1070.0"/>
      <point x="156.0" y="1047.0"/>
      <point x="125.0" y="1047.0" type="qcurve" smooth="yes"/>
      <point x="67.0" y="1047.0"/>
      <point x="47.0" y="1122.0" type="qcurve"/>
      <point x="5.0" y="1080.0"/>
      <point x="-44.0" y="1047.0"/>
      <point x="-92.0" y="1047.0" type="qcurve" smooth="yes"/>
      <point x="-123.0" y="1047.0"/>
      <point x="-164.0" y="1081.0"/>
      <point x="-181.0" y="1126.0"/>
      <point x="-181.0" y="1149.0" type="qcurve" smooth="yes"/>
      <point x="-181.0" y="1172.0"/>
      <point x="-159.0" y="1217.0"/>
      <point x="-116.29714092285676" y="1252.5148671443612"/>
      <point x="-101.0" y="1261.0" type="qcurve" smooth="yes"/>
      <point x="27.0" y="1332.0" type="line" smooth="yes"/>
      <point x="38.0" y="1338.1015624999895"/>
      <point x="38.0" y="1349.0" type="qcurve" smooth="yes"/>
      <point x="38.0" y="1449.0" type="line" smooth="yes"/>
      <point x="38.0" y="1497.0"/>
      <point x="-36.0" y="1497.0" type="qcurve" smooth="yes"/>
      <point x="-89.0" y="1497.0"/>
      <point x="-110.0" y="1470.0" type="qcurve" smooth="yes"/>
      <point x="-113.0" y="1466.0"/>
      <point x="-118.0" y="1419.0" type="qcurve" smooth="yes"/>
      <point x="-124.0" y="1365.0"/>
      <point x="-156.0" y="1364.0" type="qcurve" smooth="yes"/>
      <point x="-186.0" y="1364.0"/>
      <point x="-186.0" y="1395.0" type="qcurve" smooth="yes"/>
      <point x="-186.0" y="1426.0"/>
      <point x="-142.0" y="1488.0"/>
      <point x="-126.0" y="1497.0" type="qcurve" smooth="yes"/>
      <point x="-57.0" y="1538.0"/>
      <point x="9.0" y="1538.0" type="qcurve" smooth="yes"/>
      <point x="48.0" y="1538.0"/>
      <point x="122.0" y="1494.0"/>
      <point x="122.0" y="1462.0" type="qcurve" smooth="yes"/>
      <point x="122.0" y="1169.0" type="line" smooth="yes"/>
      <point x="122.0" y="1106.0"/>
      <point x="159.0" y="1106.0" type="qcurve" smooth="yes"/>
      <point x="170.0" y="1106.0"/>
      <point x="198.0" y="1127.0" type="qcurve" smooth="yes"/>
      <point x="200.0" y="1128.0"/>
    </contour>
  </outline>
</glyph>
<glyph name="uni0364" format="2">
  <unicode hex="0364"/>
  <outline>
    <contour>
      <point x="-201.0" y="1297.0" type="qcurve" smooth="yes"/>
      <point x="-201.0" y="1395.0"/>
      <point x="-76.0" y="1538.0"/>
      <point x="1.0" y="1538.0" type="qcurve" smooth="yes"/>
      <point x="79.0" y="1538.0"/>
      <point x="174.0" y="1431.0"/>
      <point x="174.0" y="1396.0" type="qcurve" smooth="yes"/>
      <point x="174.0" y="1362.0"/>
      <point x="146.0" y="1362.0" type="qcurve" smooth="yes"/>
      <point x="-101.0" y="1362.0" type="line" smooth="yes"/>
      <point x="-117.0" y="1362.0"/>
      <point x="-117.0" y="1326.0" type="qcurve" smooth="yes"/>
      <point x="-117.0" y="1238.0"/>
      <point x="-33.0" y="1112.0"/>
      <point x="41.0" y="1112.0" type="qcurve" smooth="yes"/>
      <point x="97.0" y="1112.0"/>
      <point x="152.0" y="1145.0" type="qcurve" smooth="yes"/>
      <point x="155.0" y="1147.0"/>
      <point x="158.0" y="1146.0" type="qcurve" smooth="yes"/>
      <point x="165.0" y="1146.0"/>
      <point x="170.0" y="1140.0" type="qcurve" smooth="yes"/>
      <point x="174.0" y="1136.0"/>
      <point x="173.0" y="1129.0" type="qcurve" smooth="yes"/>
      <point x="173.0" y="1126.0"/>
      <point x="171.0" y="1124.0" type="qcurve" smooth="yes"/>
      <point x="84.0" y="1047.0"/>
      <point x="0.0" y="1047.0" type="qcurve" smooth="yes"/>
      <point x="-84.0" y="1047.0"/>
      <point x="-201.0" y="1199.0"/>
    </contour>
    <contour>
      <point x="-104.0" y="1406.0" type="qcurve" smooth="yes"/>
      <point x="-104.0" y="1399.0"/>
      <point x="-91.0" y="1399.0" type="qcurve" smooth="yes"/>
      <point x="85.0" y="1399.0" type="line" smooth="yes"/>
      <point x="93.0" y="1399.0"/>
      <point x="94.0" y="1408.0" type="qcurve" smooth="yes"/>
      <point x="94.0" y="1432.0"/>
      <point x="34.0" y="1506.0"/>
      <point x="1.0" y="1506.0" type="qcurve" smooth="yes"/>
      <point x="-35.0" y="1506.0"/>
      <point x="-87.0" y="1458.0"/>
      <point x="-103.0" y="1415.0" type="qcurve" smooth="yes"/>
      <point x="-104.0" y="1410.0"/>
    </contour>
  </outline>
</glyph>
<glyph name="uni0365" format="2">
  <unicode hex="0365"/>
  <outline>
    <contour>
      <point x="45.0" y="1130.0" type="line" smooth="yes"/>
      <point x="45.0" y="1087.0"/>
      <point x="107.0" y="1087.0" type="qcurve" smooth="yes"/>
      <point x="115.0" y="1087.0"/>
      <point x="115.0" y="1056.0"/>
      <point x="107.0" y="1056.0" type="qcurve"/>
      <point x="65.0" y="1060.0"/>
      <point x="-57.0" y="1060.0"/>
      <point x="-102.0" y="1056.0" type="qcurve"/>
      <point x="-109.0" y="1056.0"/>
      <point x="-109.0" y="1087.0"/>
      <point x="-102.0" y="1087.0" type="qcurve" smooth="yes"/>
      <point x="-39.0" y="1087.0"/>
      <point x="-39.0" y="1130.0" type="qcurve" smooth="yes"/>
      <point x="-39.0" y="1350.0" type="line" smooth="yes"/>
      <point x="-39.0" y="1426.0"/>
      <point x="-90.0" y="1426.0" type="qcurve" smooth="yes"/>
      <point x="-99.0" y="1426.0"/>
      <point x="-99.0" y="1456.0"/>
      <point x="-90.0" y="1456.0" type="qcurve" smooth="yes"/>
      <point x="-72.0" y="1456.0"/>
      <point x="-1.0" y="1494.0"/>
      <point x="35.0" y="1521.0"/>
      <point x="41.0" y="1521.0" type="qcurve" smooth="yes"/>
      <point x="48.0" y="1521.0"/>
      <point x="48.0" y="1512.0" type="qcurve" smooth="yes"/>
      <point x="45.0" y="1453.0"/>
      <point x="45.0" y="1421.0" type="qcurve" smooth="yes"/>
    </contour>
    <contour>
      <point x="51.0" y="1650.0" type="qcurve" smooth="yes"/>
      <point x="51.0" y="1625.0"/>
      <point x="16.0" y="1590.0"/>
      <point x="-9.0" y="1590.0" type="qcurve" smooth="yes"/>
      <point x="-34.0" y="1590.0"/>
      <point x="-68.0" y="1625.0"/>
      <point x="-68.0" y="1650.0" type="qcurve" smooth="yes"/>
      <point x="-68.0" y="1675.0"/>
      <point x="-34.0" y="1708.0"/>
      <point x="-9.0" y="1708.0" type="qcurve" smooth="yes"/>
      <point x="16.0" y="1708.0"/>
      <point x="51.0" y="1675.0"/>
    </contour>
  </outline>
</glyph>
<glyph name="uni0366" format="2">
  <unicode hex="0366"/>
  <outline>
    <contour>
      <point x="-231.0" y="1293.0" type="qcurve" smooth="yes"/>
      <point x="-231.0" y="1385.0"/>
      <point x="-93.0" y="1535.0"/>
      <point x="2.0" y="1535.0" type="qcurve" smooth="yes"/>
      <point x="97.0" y="1535.0"/>
      <point x="231.0" y="1385.0"/>
      <point x="231.0" y="1288.0" type="qcurve" smooth="yes"/>
      <point x="231.0" y="1191.0"/>
      <point x="109.0" y="1044.0"/>
      <point x="7.0" y="1044.0" type="qcurve" smooth="yes"/>
      <point x="-95.0" y="1044.0"/>
      <point x="-231.0" y="1201.0"/>
    </contour>
    <contour>
      <point x="-141.0" y="1289.0" type="qcurve" smooth="yes"/>
      <point x="-141.0" y="1191.0"/>
      <point x="-51.0" y="1081.0"/>
      <point x="0.0" y="1081.0" type="qcurve" smooth="yes"/>
      <point x="52.0" y="1081.0"/>
      <point x="142.0" y="1192.0"/>
      <point x="142.0" y="1289.0" type="qcurve" smooth="yes"/>
      <point x="142.0" y="1386.0"/>
      <point x="54.0" y="1503.0"/>
      <point x="1.0" y="1503.0" type="qcurve" smooth="yes"/>
      <point x="-52.0" y="1503.0"/>
      <point x="-141.0" y="1387.0"/>
    </contour>
  </outline>
</glyph>
<glyph name="uni0367" format="2">
  <unicode hex="0367"/>
  <outline>
    <contour>
      <point x="273.0" y="1057.0" type="qcurve"/>
      <point x="258.0" y="1055.0"/>
      <point x="199.774" y="1042.68" type="qcurve"/>
      <point x="142.0" y="1030.0"/>
      <point x="126.0" y="1023.0" type="qcurve"/>
      <point x="122.0" y="1022.0"/>
      <point x="118.0" y="1022.0" type="qcurve"/>
      <point x="110.0" y="1022.0"/>
      <point x="110.0" y="1047.0" type="qcurve"/>
      <point x="110.0" y="1071.0" type="line"/>
      <point x="110.0" y="1084.5"/>
      <point x="103.49000000000001" y="1084.5" type="qcurve" smooth="yes"/>
      <point x="96.981" y="1084.5"/>
      <point x="88.0" y="1076.0" type="qcurve"/>
      <point x="36.0" y="1027.0"/>
      <point x="-41.0" y="1027.0" type="qcurve"/>
      <point x="-99.0" y="1027.0"/>
      <point x="-142.5" y="1085.5" type="qcurve"/>
      <point x="-186.0" y="1144.0"/>
      <point x="-186.0" y="1206.0" type="qcurve"/>
      <point x="-186.0" y="1390.0" type="line"/>
      <point x="-186.0" y="1471.0"/>
      <point x="-247.0" y="1471.0" type="qcurve"/>
      <point x="-255.5" y="1471.0"/>
      <point x="-255.5" y="1486.0" type="qcurve"/>
      <point x="-255.5" y="1501.0"/>
      <point x="-247.0" y="1501.0" type="qcurve"/>
      <point x="-189.0" y="1501.0"/>
      <point x="-154.0" y="1506.0" type="qcurve"/>
      <point x="-119.0" y="1511.0"/>
      <point x="-108.0" y="1511.0" type="qcurve"/>
      <point x="-98.0" y="1511.0"/>
      <point x="-98.0" y="1503.0" type="qcurve"/>
      <point x="-102.0" y="1435.0"/>
      <point x="-102.0" y="1419.0" type="qcurve"/>
      <point x="-102.0" y="1224.0" type="line"/>
      <point x="-102.0" y="1161.0"/>
      <point x="-80.5" y="1121.0" type="qcurve"/>
      <point x="-59.0" y="1081.0"/>
      <point x="-14.0" y="1081.0" type="qcurve"/>
      <point x="35.0" y="1081.0"/>
      <point x="72.5" y="1109.5" type="qcurve"/>
      <point x="110.0" y="1138.0"/>
      <point x="110.0" y="1179.0" type="qcurve"/>
      <point x="110.0" y="1390.0" type="line"/>
      <point x="110.0" y="1471.0"/>
      <point x="49.0" y="1471.0" type="qcurve"/>
      <point x="40.5" y="1471.0"/>
      <point x="40.5" y="1486.0" type="qcurve"/>
      <point x="40.5" y="1501.0"/>
      <point x="49.0" y="1501.0" type="qcurve"/>
      <point x="117.0" y="1501.0"/>
      <point x="148.0" y="1506.0" type="qcurve"/>
      <point x="179.0" y="1511.0"/>
      <point x="186.0" y="1511.0" type="qcurve"/>
      <point x="197.0" y="1510.0"/>
      <point x="197.0" y="1496.0" type="qcurve"/>
      <point x="194.0" y="1448.0"/>
      <point x="194.0" y="1420.0" type="qcurve"/>
      <point x="194.0" y="1165.0" type="line"/>
      <point x="194.0" y="1085.0"/>
      <point x="235.0" y="1085.0" type="qcurve"/>
      <point x="240.0" y="1085.0"/>
      <point x="252.0" y="1086.5" type="qcurve"/>
      <point x="264.0" y="1088.0"/>
      <point x="266.0" y="1088.0" type="qcurve"/>
      <point x="274.0" y="1088.0"/>
      <point x="276.0" y="1077.0" type="qcurve"/>
      <point x="277.0" y="1071.0"/>
      <point x="277.0" y="1065.0" type="qcurve"/>
      <point x="277.0" y="1058.0"/>
    </contour>
  </outline>
</glyph>
<glyph name="uni0368" format="2">
  <unicode hex="0368"/>
  <anchor x="-400" y="900" name="_above"/>
  <outline>
    <contour>
      <point x="164.0" y="1144.0" type="qcurve" smooth="yes"/>
      <point x="170.0" y="1147.0"/>
      <point x="185.0" y="1124.0"/>
      <point x="185.0" y="1119.0" type="qcurve" smooth="yes"/>
      <point x="185.0" y="1116.0"/>
      <point x="182.0" y="1113.0" type="qcurve" smooth="yes"/>
      <point x="168.0" y="1100.0"/>
      <point x="78.0" y="1047.0"/>
      <point x="0.0" y="1047.0" type="qcurve" smooth="yes"/>
      <point x="-81.0" y="1047.0"/>
      <point x="-198.0" y="1176.0"/>
      <point x="-198.0" y="1278.0" type="qcurve" smooth="yes"/>
      <point x="-198.0" y="1380.0"/>
      <point x="-63.0" y="1538.0"/>
      <point x="43.0" y="1538.0" type="qcurve" smooth="yes"/>
      <point x="151.0" y="1538.0"/>
      <point x="171.0" y="1498.0" type="qcurve" smooth="yes"/>
      <point x="174.0" y="1491.0"/>
      <point x="174.0" y="1476.0" type="qcurve" smooth="yes"/>
      <point x="174.0" y="1465.0"/>
      <point x="150.0" y="1435.0"/>
      <point x="131.0" y="1435.0"/>
      <point x="126.0" y="1443.0" type="qcurve" smooth="yes"/>
      <point x="83.0" y="1502.0"/>
      <point x="31.0" y="1502.0" type="qcurve" smooth="yes"/>
      <point x="-21.0" y="1502.0"/>
      <point x="-108.0" y="1389.0"/>
      <point x="-108.0" y="1302.0" type="qcurve" smooth="yes"/>
      <point x="-108.0" y="1214.0"/>
      <point x="-59.0" y="1162.0" type="qcurve" smooth="yes"/>
      <point x="-9.0" y="1110.0"/>
      <point x="47.0" y="1110.0" type="qcurve" smooth="yes"/>
      <point x="89.0" y="1110.0"/>
    </contour>
  </outline>
</glyph>
<glyph name="uni0369" format="2">
  <unicode hex="0369"/>
  <anchor x="-400" y="900" name="_above"/>
  <outline>
    <contour>
      <point x="185.0" y="1187.0" type="line" smooth="yes"/>
      <point x="185.0" y="1105.0"/>
      <point x="230.0" y="1105.0" type="qcurve" smooth="yes"/>
      <point x="235.0" y="1105.0"/>
      <point x="255.0" y="1108.0" type="qcurve" smooth="yes"/>
      <point x="262.0" y="1109.0"/>
      <point x="265.0" y="1088.0" type="qcurve" smooth="yes"/>
      <point x="266.0" y="1078.0"/>
      <point x="262.0" y="1077.0" type="qcurve" smooth="yes"/>
      <point x="241.0" y="1074.0"/>
      <point x="114.0" y="1045.0"/>
      <point x="110.0" y="1042.0" type="qcurve"/>
      <point x="100.0" y="1042.0"/>
      <point x="100.0" y="1069.0" type="qcurve" smooth="yes"/>
      <point x="100.0" y="1091.0" type="line" smooth="yes"/>
      <point x="100.0" y="1104.0"/>
      <point x="88.0" y="1104.0"/>
      <point x="79.0" y="1096.0" type="qcurve" smooth="yes"/>
      <point x="22.0" y="1047.0"/>
      <point x="-37.0" y="1047.0" type="qcurve" smooth="yes"/>
      <point x="-118.0" y="1047.0"/>
      <point x="-242.0" y="1172.0"/>
      <point x="-242.0" y="1266.0" type="qcurve" smooth="yes"/>
      <point x="-242.0" y="1360.0"/>
      <point x="-93.0" y="1508.0"/>
      <point x="20.0" y="1508.0" type="qcurve" smooth="yes"/>
      <point x="58.0" y="1508.0"/>
      <point x="82.0" y="1501.0" type="qcurve" smooth="yes"/>
      <point x="89.0" y="1499.0"/>
      <point x="93.0" y="1499.0" type="qcurve" smooth="yes"/>
      <point x="100.0" y="1499.0"/>
      <point x="100.0" y="1512.0" type="qcurve" smooth="yes"/>
      <point x="100.0" y="1629.0" type="line" smooth="yes"/>
      <point x="100.0" y="1706.0"/>
      <point x="50.0" y="1706.0" type="qcurve" smooth="yes"/>
      <point x="41.0" y="1706.0"/>
      <point x="41.0" y="1736.0"/>
      <point x="50.0" y="1736.0" type="qcurve"/>
      <point x="64.0" y="1736.0"/>
      <point x="142.0" y="1776.0"/>
      <point x="177.0" y="1802.0"/>
      <point x="182.0" y="1802.0" type="qcurve" smooth="yes"/>
      <point x="188.45703667414597" y="1801.9883879248928"/>
      <point x="188.0" y="1793.0" type="qcurve" smooth="yes"/>
      <point x="185.0" y="1734.0" type="line"/>
    </contour>
    <contour>
      <point x="100.0" y="1169.0" type="qcurve" smooth="yes"/>
      <point x="100.0" y="1397.0" type="line" smooth="yes"/>
      <point x="100.0" y="1438.0"/>
      <point x="88.0" y="1449.0" type="qcurve" smooth="yes"/>
      <point x="56.0" y="1476.0"/>
      <point x="7.0" y="1476.0" type="qcurve" smooth="yes"/>
      <point x="-67.0" y="1476.0"/>
      <point x="-152.0" y="1353.0"/>
      <point x="-152.0" y="1282.0" type="qcurve" smooth="yes"/>
      <point x="-152.0" y="1200.0"/>
      <point x="-61.0" y="1101.0"/>
      <point x="-1.0" y="1101.0" type="qcurve" smooth="yes"/>
      <point x="42.0" y="1101.0"/>
      <point x="100.0" y="1145.0"/>
    </contour>
  </outline>
</glyph>
<glyph name="uni036A" format="2">
  <unicode hex="036A"/>
  <outline>
    <contour>
      <point x="182.0" y="1130.0" type="line" smooth="yes"/>
      <point x="182.0" y="1087.0"/>
      <point x="251.0" y="1087.0" type="qcurve" smooth="yes"/>
      <point x="259.0" y="1087.0"/>
      <point x="259.0" y="1056.0"/>
      <point x="251.0" y="1056.0" type="qcurve"/>
      <point x="206.0" y="1060.0"/>
      <point x="79.0" y="1060.0"/>
      <point x="35.0" y="1056.0" type="qcurve"/>
      <point x="28.0" y="1056.0"/>
      <point x="28.0" y="1087.0"/>
      <point x="35.0" y="1087.0" type="qcurve" smooth="yes"/>
      <point x="97.0" y="1087.0"/>
      <point x="97.0" y="1130.0" type="qcurve" smooth="yes"/>
      <point x="97.0" y="1319.0" type="line" smooth="yes"/>
      <point x="97.0" y="1372.0"/>
      <point x="33.0" y="1447.0"/>
      <point x="-14.0" y="1447.0" type="qcurve" smooth="yes"/>
      <point x="-60.0" y="1447.0"/>
      <point x="-130.0" y="1391.0"/>
      <point x="-130.0" y="1364.0" type="qcurve" smooth="yes"/>
      <point x="-130.0" y="1130.0" type="line" smooth="yes"/>
      <point x="-130.0" y="1087.0"/>
      <point x="-69.0" y="1087.0" type="qcurve" smooth="yes"/>
      <point x="-62.0" y="1087.0"/>
      <point x="-62.0" y="1056.0"/>
      <point x="-69.0" y="1056.0" type="qcurve"/>
      <point x="-127.0" y="1060.0"/>
      <point x="-237.0" y="1060.0"/>
      <point x="-281.0" y="1056.0" type="qcurve"/>
      <point x="-289.0" y="1056.0"/>
      <point x="-289.0" y="1087.0"/>
      <point x="-281.0" y="1087.0" type="qcurve" smooth="yes"/>
      <point x="-214.0" y="1087.0"/>
      <point x="-214.0" y="1130.0" type="qcurve" smooth="yes"/>
      <point x="-214.0" y="1615.0" type="line" smooth="yes"/>
      <point x="-214.0" y="1691.0"/>
      <point x="-265.0" y="1692.0" type="qcurve" smooth="yes"/>
      <point x="-274.0" y="1692.0"/>
      <point x="-274.0" y="1722.0"/>
      <point x="-265.0" y="1722.0" type="qcurve" smooth="yes"/>
      <point x="-247.0" y="1722.0"/>
      <point x="-176.0" y="1760.0"/>
      <point x="-140.0" y="1788.0"/>
      <point x="-133.0" y="1788.0" type="qcurve" smooth="yes"/>
      <point x="-127.0" y="1788.0"/>
      <point x="-127.0" y="1778.0" type="qcurve" smooth="yes"/>
      <point x="-130.0" y="1720.0"/>
      <point x="-130.0" y="1688.0" type="qcurve" smooth="yes"/>
      <point x="-130.0" y="1453.0" type="line" smooth="yes"/>
      <point x="-130.0" y="1439.0"/>
      <point x="-121.0" y="1439.0" type="qcurve" smooth="yes"/>
      <point x="-116.0" y="1439.0"/>
      <point x="-112.0" y="1444.0" type="qcurve" smooth="yes"/>
      <point x="-62.0" y="1497.0"/>
      <point x="20.0" y="1497.0" type="qcurve" smooth="yes"/>
      <point x="100.0" y="1497.0"/>
      <point x="182.0" y="1380.0"/>
      <point x="182.0" y="1320.0" type="qcurve" smooth="yes"/>
    </contour>
  </outline>
</glyph>
<glyph name="uni036B" format="2">
  <unicode hex="036B"/>
  <outline>
    <contour>
      <point x="405.0" y="1056.0" type="qcurve"/>
      <point x="363.0" y="1060.0"/>
      <point x="301.0" y="1060.0" type="qcurve"/>
      <point x="239.0" y="1060.0"/>
      <point x="197.0" y="1056.0" type="qcurve"/>
      <point x="189.0" y="1056.0"/>
      <point x="189.0" y="1071.5" type="qcurve"/>
      <point x="189.0" y="1087.0"/>
      <point x="197.0" y="1087.0" type="qcurve"/>
      <point x="257.0" y="1087.0"/>
      <point x="257.0" y="1130.0" type="qcurve"/>
      <point x="257.0" y="1379.0" type="line"/>
      <point x="257.0" y="1443.0"/>
      <point x="226.0" y="1466.0" type="qcurve"/>
      <point x="195.0" y="1489.0"/>
      <point x="148.0" y="1489.0" type="qcurve"/>
      <point x="100.0" y="1489.0"/>
      <point x="71.5" y="1444.0" type="qcurve"/>
      <point x="43.0" y="1399.0"/>
      <point x="43.0" y="1322.0" type="qcurve"/>
      <point x="43.0" y="1130.0" type="line"/>
      <point x="43.0" y="1087.0"/>
      <point x="107.0" y="1087.0" type="qcurve"/>
      <point x="115.0" y="1087.0"/>
      <point x="115.0" y="1071.5" type="qcurve"/>
      <point x="115.0" y="1056.0"/>
      <point x="107.0" y="1056.0" type="qcurve"/>
      <point x="63.0" y="1060.0"/>
      <point x="2.0" y="1060.0" type="qcurve"/>
      <point x="-59.0" y="1060.0"/>
      <point x="-101.0" y="1056.0" type="qcurve"/>
      <point x="-109.0" y="1056.0"/>
      <point x="-109.0" y="1071.5" type="qcurve"/>
      <point x="-109.0" y="1087.0"/>
      <point x="-101.0" y="1087.0" type="qcurve"/>
      <point x="-41.0" y="1087.0"/>
      <point x="-41.0" y="1130.0" type="qcurve"/>
      <point x="-41.0" y="1353.0" type="line"/>
      <point x="-41.0" y="1403.0"/>
      <point x="-49.5" y="1434.0" type="qcurve"/>
      <point x="-58.0" y="1465.0"/>
      <point x="-76.0" y="1477.0" type="qcurve"/>
      <point x="-94.0" y="1489.0"/>
      <point x="-135.0" y="1489.0" type="qcurve"/>
      <point x="-160.0" y="1489.0"/>
      <point x="-177.5" y="1479.5" type="qcurve"/>
      <point x="-195.0" y="1470.0"/>
      <point x="-212.5" y="1457.0" type="qcurve"/>
      <point x="-230.0" y="1444.0"/>
      <point x="-242.0" y="1426.0" type="qcurve"/>
      <point x="-254.0" y="1406.0"/>
      <point x="-254.0" y="1384.0" type="qcurve"/>
      <point x="-254.0" y="1130.0" type="line"/>
      <point x="-254.0" y="1087.0"/>
      <point x="-196.0" y="1087.0" type="qcurve"/>
      <point x="-188.0" y="1087.0"/>
      <point x="-188.0" y="1071.5" type="qcurve"/>
      <point x="-188.0" y="1056.0"/>
      <point x="-196.0" y="1056.0" type="qcurve"/>
      <point x="-238.0" y="1060.0"/>
      <point x="-299.5" y="1060.0" type="qcurve"/>
      <point x="-361.0" y="1060.0"/>
      <point x="-405.0" y="1056.0" type="qcurve"/>
      <point x="-413.0" y="1056.0"/>
      <point x="-413.0" y="1071.5" type="qcurve"/>
      <point x="-413.0" y="1087.0"/>
      <point x="-405.0" y="1087.0" type="qcurve"/>
      <point x="-338.0" y="1087.0"/>
      <point x="-338.0" y="1130.0" type="qcurve"/>
      <point x="-338.0" y="1378.0" type="line"/>
      <point x="-338.0" y="1446.0"/>
      <point x="-385.0" y="1446.0" type="qcurve"/>
      <point x="-394.0" y="1446.0"/>
      <point x="-394.0" y="1461.5" type="qcurve"/>
      <point x="-394.0" y="1477.0"/>
      <point x="-385.0" y="1477.0" type="qcurve"/>
      <point x="-371.0" y="1477.0"/>
      <point x="-339.0" y="1496.0" type="qcurve"/>
      <point x="-307.0" y="1515.0"/>
      <point x="-287.0" y="1530.5" type="qcurve"/>
      <point x="-267.0" y="1546.0"/>
      <point x="-260.0" y="1546.0" type="qcurve"/>
      <point x="-253.0" y="1546.0"/>
      <point x="-253.0" y="1531.0" type="qcurve"/>
      <point x="-255.0" y="1488.0"/>
      <point x="-255.0" y="1485.0" type="qcurve"/>
      <point x="-255.0" y="1474.0"/>
      <point x="-249.0" y="1474.0" type="qcurve" smooth="yes"/>
      <point x="-243.0" y="1474.0"/>
      <point x="-239.0" y="1478.0" type="qcurve"/>
      <point x="-182.0" y="1538.0"/>
      <point x="-100.0" y="1538.0" type="qcurve"/>
      <point x="-27.0" y="1538.0"/>
      <point x="19.0" y="1471.0" type="qcurve"/>
      <point x="24.97199999999998" y="1462.5"/>
      <point x="29.5" y="1462.5" type="qcurve" smooth="yes"/>
      <point x="34.02800000000002" y="1462.5"/>
      <point x="40.0" y="1470.0" type="qcurve"/>
      <point x="102.0" y="1538.0"/>
      <point x="191.0" y="1538.0" type="qcurve"/>
      <point x="258.0" y="1538.0"/>
      <point x="290.5" y="1501.0" type="qcurve"/>
      <point x="323.0" y="1464.0"/>
      <point x="332.0" y="1436.0" type="qcurve"/>
      <point x="341.0" y="1408.0"/>
      <point x="341.0" y="1371.0" type="qcurve"/>
      <point x="341.0" y="1130.0" type="line"/>
      <point x="341.0" y="1087.0"/>
      <point x="405.0" y="1087.0" type="qcurve"/>
      <point x="413.0" y="1087.0"/>
      <point x="413.0" y="1071.5" type="qcurve"/>
      <point x="413.0" y="1056.0"/>
    </contour>
  </outline>
</glyph>
<glyph name="uni036C" format="2">
  <unicode hex="036C"/>
  <anchor x="-400" y="900" name="_above"/>
  <outline>
    <contour>
      <point x="129.0" y="1538.0" type="qcurve" smooth="yes"/>
      <point x="147.0" y="1538.0"/>
      <point x="169.0" y="1527.0"/>
      <point x="189.0" y="1501.0"/>
      <point x="189.0" y="1477.0" type="qcurve" smooth="yes"/>
      <point x="189.0" y="1470.0"/>
      <point x="178.0" y="1446.0"/>
      <point x="155.0" y="1428.0"/>
      <point x="143.0" y="1428.0" type="qcurve" smooth="yes"/>
      <point x="131.0" y="1428.0"/>
      <point x="81.0" y="1455.0"/>
      <point x="69.0" y="1455.0" type="qcurve" smooth="yes"/>
      <point x="35.0" y="1455.0"/>
      <point x="-11.0" y="1389.0"/>
      <point x="-11.0" y="1332.0" type="qcurve" smooth="yes"/>
      <point x="-11.0" y="1130.0" type="line" smooth="yes"/>
      <point x="-11.0" y="1087.0"/>
      <point x="72.0" y="1087.0" type="qcurve" smooth="yes"/>
      <point x="80.0" y="1087.0"/>
      <point x="80.0" y="1056.0"/>
      <point x="72.0" y="1056.0" type="qcurve"/>
      <point x="26.0" y="1060.0"/>
      <point x="-113.0" y="1060.0"/>
      <point x="-159.0" y="1056.0" type="qcurve"/>
      <point x="-167.0" y="1056.0"/>
      <point x="-167.0" y="1087.0"/>
      <point x="-159.0" y="1087.0" type="qcurve" smooth="yes"/>
      <point x="-95.0" y="1087.0"/>
      <point x="-95.0" y="1130.0" type="qcurve" smooth="yes"/>
      <point x="-95.0" y="1384.0" type="line" smooth="yes"/>
      <point x="-95.0" y="1446.0"/>
      <point x="-141.0" y="1446.0" type="qcurve" smooth="yes"/>
      <point x="-151.0" y="1446.0"/>
      <point x="-151.0" y="1477.0"/>
      <point x="-141.0" y="1477.0" type="qcurve" smooth="yes"/>
      <point x="-120.0" y="1477.0"/>
      <point x="-42.0" y="1530.0"/>
      <point x="-24.0" y="1546.0"/>
      <point x="-18.0" y="1546.0" type="qcurve" smooth="yes"/>
      <point x="-9.0" y="1546.0"/>
      <point x="-9.0" y="1532.0" type="qcurve"/>
      <point x="-11.0" y="1505.0"/>
      <point x="-11.0" y="1460.0"/>
      <point x="4.0" y="1460.0"/>
      <point x="11.0" y="1471.0" type="qcurve" smooth="yes"/>
      <point x="61.0" y="1538.0"/>
    </contour>
  </outline>
</glyph>
<glyph name="uni036D" format="2">
  <unicode hex="036D"/>
  <outline>
    <contour>
      <point x="-79.0" y="1177.0" type="qcurve" smooth="yes"/>
      <point x="-79.0" y="1431.0" type="line" smooth="yes"/>
      <point x="-79.0" y="1453.0"/>
      <point x="-101.0" y="1453.0" type="qcurve" smooth="yes"/>
      <point x="-141.0" y="1453.0" type="line" smooth="yes"/>
      <point x="-149.0" y="1453.0"/>
      <point x="-149.0" y="1478.0"/>
      <point x="-141.0" y="1478.0" type="qcurve" smooth="yes"/>
      <point x="-116.0" y="1478.0"/>
      <point x="-64.0" y="1518.0"/>
      <point x="-28.0" y="1564.0"/>
      <point x="-19.0" y="1586.0" type="qcurve" smooth="yes"/>
      <point x="-17.0" y="1591.0"/>
      <point x="-6.0" y="1591.0"/>
      <point x="5.0" y="1585.0"/>
      <point x="5.0" y="1580.0" type="qcurve" smooth="yes"/>
      <point x="5.0" y="1526.0" type="line" smooth="yes"/>
      <point x="5.0" y="1502.0"/>
      <point x="28.0" y="1502.0" type="qcurve" smooth="yes"/>
      <point x="162.0" y="1502.0" type="line" smooth="yes"/>
      <point x="170.0" y="1502.0"/>
      <point x="170.0" y="1453.0"/>
      <point x="162.0" y="1453.0" type="qcurve" smooth="yes"/>
      <point x="28.0" y="1453.0" type="line" smooth="yes"/>
      <point x="5.0" y="1453.0"/>
      <point x="5.0" y="1431.0" type="qcurve" smooth="yes"/>
      <point x="5.0" y="1234.0" type="line" smooth="yes"/>
      <point x="5.0" y="1162.0"/>
      <point x="47.0" y="1101.0"/>
      <point x="94.0" y="1101.0" type="qcurve" smooth="yes"/>
      <point x="122.0" y="1101.0"/>
      <point x="154.0" y="1122.0" type="qcurve" smooth="yes"/>
      <point x="162.0" y="1127.0"/>
      <point x="170.0" y="1112.0"/>
      <point x="170.0" y="1104.0"/>
      <point x="169.0" y="1103.0" type="qcurve" smooth="yes"/>
      <point x="123.0" y="1047.0"/>
      <point x="48.0" y="1047.0" type="qcurve" smooth="yes"/>
      <point x="-21.0" y="1047.0"/>
      <point x="-79.0" y="1107.0"/>
    </contour>
  </outline>
</glyph>
<glyph name="uni036E" format="2">
  <unicode hex="036E"/>
  <outline>
    <contour>
      <point x="-189.0" y="1462.0" type="line" smooth="yes"/>
      <point x="-204.34894976556947" y="1501.8674019885286"/>
      <point x="-245.0" y="1502.0" type="qcurve" smooth="yes"/>
      <point x="-253.0" y="1502.0"/>
      <point x="-253.0" y="1531.0"/>
      <point x="-245.0" y="1531.0" type="qcurve"/>
      <point x="-213.0" y="1528.0"/>
      <point x="-83.0" y="1528.0"/>
      <point x="-50.0" y="1531.0" type="qcurve"/>
      <point x="-42.0" y="1531.0"/>
      <point x="-42.0" y="1502.0"/>
      <point x="-50.0" y="1502.0" type="qcurve" smooth="yes"/>
      <point x="-93.0" y="1502.0"/>
      <point x="-93.0" y="1471.0" type="qcurve" smooth="yes"/>
      <point x="-93.26355366159375" y="1461.9192719883067"/>
      <point x="-91.0" y="1455.0" type="qcurve" smooth="yes"/>
      <point x="-3.0" y="1186.0" type="line" smooth="yes"/>
      <point x="0.24613149856051564" y="1176.0771662145949"/>
      <point x="5.0" y="1176.0" type="qcurve" smooth="yes"/>
      <point x="9.644412101764104" y="1176.1136442567945"/>
      <point x="13.0" y="1186.0" type="qcurve" smooth="yes"/>
      <point x="106.0" y="1460.0" type="line" smooth="yes"/>
      <point x="108.03275653621392" y="1465.9889816228397"/>
      <point x="108.0" y="1472.0" type="qcurve" smooth="yes"/>
      <point x="108.0" y="1502.0"/>
      <point x="55.0" y="1502.0" type="qcurve" smooth="yes"/>
      <point x="47.0" y="1502.0"/>
      <point x="47.0" y="1531.0"/>
      <point x="55.0" y="1531.0" type="qcurve"/>
      <point x="86.0" y="1528.0"/>
      <point x="181.0" y="1528.0"/>
      <point x="214.0" y="1531.0" type="qcurve"/>
      <point x="222.0" y="1531.0"/>
      <point x="222.0" y="1502.0"/>
      <point x="214.0" y="1502.0" type="qcurve" smooth="yes"/>
      <point x="162.0407812797681" y="1501.9857032097962"/>
      <point x="148.0" y="1462.0" type="qcurve" smooth="yes"/>
      <point x="10.0" y="1069.0" type="line" smooth="yes"/>
      <point x="2.666080341665918" y="1048.1142722773166"/>
      <point x="-13.0" y="1047.0" type="qcurve" smooth="yes"/>
      <point x="-29.0" y="1047.0"/>
      <point x="-35.0" y="1062.0" type="qcurve" smooth="yes"/>
    </contour>
  </outline>
</glyph>
<glyph name="uni036F" format="2">
  <unicode hex="036F"/>
  <anchor x="-400" y="900" name="_above"/>
  <outline>
    <contour>
      <point x="-142.0" y="1463.0" type="line" smooth="yes"/>
      <point x="-169.1622516450759" y="1500.8841930839317"/>
      <point x="-195.0" y="1502.0" type="qcurve" smooth="yes"/>
      <point x="-203.0" y="1502.0"/>
      <point x="-203.0" y="1531.0"/>
      <point x="-195.0" y="1531.0" type="qcurve"/>
      <point x="-164.0" y="1528.0"/>
      <point x="-39.0" y="1528.0"/>
      <point x="-7.0" y="1531.0" type="qcurve"/>
      <point x="1.0" y="1531.0"/>
      <point x="1.0" y="1502.0"/>
      <point x="-7.0" y="1502.0" type="qcurve" smooth="yes"/>
      <point x="-49.0" y="1502.0"/>
      <point x="-49.0" y="1481.0" type="qcurve" smooth="yes"/>
      <point x="-48.8600741492522" y="1471.088970368469"/>
      <point x="-40.0" y="1457.0" type="qcurve" smooth="yes"/>
      <point x="21.0" y="1360.0" type="line" smooth="yes"/>
      <point x="26.022182324903156" y="1352.0139067948394"/>
      <point x="31.0" y="1352.0" type="qcurve" smooth="yes"/>
      <point x="35.94229228388188" y="1352.0436077758475"/>
      <point x="42.0" y="1360.0" type="qcurve" smooth="yes"/>
      <point x="109.0" y="1448.0" type="line" smooth="yes"/>
      <point x="123.2967035659358" y="1466.7777599074961"/>
      <point x="123.0" y="1479.0" type="qcurve" smooth="yes"/>
      <point x="123.0" y="1502.0"/>
      <point x="78.0" y="1502.0" type="qcurve" smooth="yes"/>
      <point x="70.0" y="1502.0"/>
      <point x="70.0" y="1531.0"/>
      <point x="78.0" y="1531.0" type="qcurve"/>
      <point x="109.0" y="1528.0"/>
      <point x="208.0" y="1528.0"/>
      <point x="241.0" y="1531.0" type="qcurve"/>
      <point x="249.0" y="1531.0"/>
      <point x="249.0" y="1502.0"/>
      <point x="241.0" y="1502.0" type="qcurve" smooth="yes"/>
      <point x="204.95416461810103" y="1502.0377700967588"/>
      <point x="172.0" y="1462.0" type="qcurve" smooth="yes"/>
      <point x="65.0" y="1332.0" type="line" smooth="yes"/>
      <point x="57.347578083778814" y="1322.7026649616032"/>
      <point x="57.0" y="1316.0" type="qcurve" smooth="yes"/>
      <point x="56.60853871007296" y="1308.7415854419464"/>
      <point x="62.0" y="1301.0" type="qcurve" smooth="yes"/>
      <point x="179.0" y="1133.0" type="line" smooth="yes"/>
      <point x="211.02405419730695" y="1087.016742691049"/>
      <point x="260.0" y="1087.0" type="qcurve" smooth="yes"/>
      <point x="268.0" y="1087.0"/>
      <point x="268.0" y="1056.0"/>
      <point x="260.0" y="1056.0" type="qcurve"/>
      <point x="218.0" y="1060.0"/>
      <point x="89.0" y="1060.0"/>
      <point x="43.0" y="1056.0" type="qcurve"/>
      <point x="35.0" y="1056.0"/>
      <point x="35.0" y="1087.0"/>
      <point x="43.0" y="1087.0" type="qcurve" smooth="yes"/>
      <point x="96.0" y="1087.0"/>
      <point x="97.0" y="1105.0" type="qcurve" smooth="yes"/>
      <point x="96.05437448130701" y="1112.0344508160838"/>
      <point x="84.0" y="1131.0" type="qcurve" smooth="yes"/>
      <point x="9.0" y="1249.0" type="line" smooth="yes"/>
      <point x="4.6753031655958495" y="1255.8041896861241"/>
      <point x="-1.0" y="1256.0" type="qcurve" smooth="yes"/>
      <point x="-4.993930764524805" y="1255.9956608546868"/>
      <point x="-10.0" y="1249.0" type="qcurve" smooth="yes"/>
      <point x="-88.0" y="1140.0" type="line" smooth="yes"/>
      <point x="-106.40267650701546" y="1114.2834392402146"/>
      <point x="-106.0" y="1103.0" type="qcurve" smooth="yes"/>
      <point x="-106.0" y="1087.0"/>
      <point x="-71.0" y="1087.0" type="qcurve" smooth="yes"/>
      <point x="-63.0" y="1087.0"/>
      <point x="-63.0" y="1056.0"/>
      <point x="-71.0" y="1056.0" type="qcurve"/>
      <point x="-115.0" y="1060.0"/>
      <point x="-191.0" y="1060.0"/>
      <point x="-232.0" y="1056.0" type="qcurve"/>
      <point x="-240.0" y="1056.0"/>
      <point x="-240.0" y="1087.0"/>
      <point x="-232.0" y="1087.0" type="qcurve" smooth="yes"/>
      <point x="-179.73553612480015" y="1087.7885520378738"/>
      <point x="-151.0" y="1124.0" type="qcurve" smooth="yes"/>
      <point x="-28.0" y="1279.0" type="line" smooth="yes"/>
      <point x="-23.145081311228708" y="1285.1179869655095"/>
      <point x="-23.0" y="1292.0" type="qcurve" smooth="yes"/>
      <point x="-23.0" y="1298.0"/>
      <point x="-28.0" y="1304.0" type="qcurve" smooth="yes"/>
    </contour>
  </outline>
</glyph>
<glyph name="uni1DD4" format="2">
  <unicode hex="1DD4"/>
  <anchor x="-408" y="900" name="_above"/>
  <outline>
    <contour>
      <point x="-273.0" y="1194.0" type="qcurve" smooth="yes"/>
      <point x="-273.0" y="1254.0"/>
      <point x="-205.0" y="1314.0"/>
      <point x="-52.0" y="1379.0"/>
      <point x="-52.0" y="1401.0" type="qcurve" smooth="yes"/>
      <point x="-52.0" y="1462.0" type="line" smooth="yes"/>
      <point x="-52.0" y="1541.0"/>
      <point x="-126.0" y="1542.0" type="qcurve" smooth="yes"/>
      <point x="-184.0" y="1542.0"/>
      <point x="-202.0" y="1513.0" type="qcurve"/>
      <point x="-208.0" y="1460.0"/>
      <point x="-218.0" y="1433.0" type="qcurve" smooth="yes"/>
      <point x="-227.0" y="1410.0"/>
      <point x="-251.0" y="1410.0" type="qcurve" smooth="yes"/>
      <point x="-285.0" y="1410.0"/>
      <point x="-284.0" y="1439.0" type="qcurve" smooth="yes"/>
      <point x="-284.0" y="1496.0"/>
      <point x="-153.0" y="1584.0"/>
      <point x="-91.0" y="1584.0" type="qcurve" smooth="yes"/>
      <point x="-29.0" y="1584.0"/>
      <point x="4.0" y="1538.0" type="qcurve" smooth="yes"/>
      <point x="11.0" y="1528.0"/>
      <point x="15.0" y="1528.0" type="qcurve" smooth="yes"/>
      <point x="19.0" y="1528.0"/>
      <point x="34.0" y="1541.0" type="qcurve" smooth="yes"/>
      <point x="89.0" y="1584.0"/>
      <point x="151.0" y="1584.0" type="qcurve" smooth="yes"/>
      <point x="213.0" y="1584.0"/>
      <point x="294.0" y="1538.0"/>
      <point x="294.0" y="1506.0" type="qcurve" smooth="yes"/>
      <point x="294.4490265664065" y="1485.983443219418"/>
      <point x="275.0" y="1478.0" type="qcurve" smooth="yes"/>
      <point x="46.0" y="1384.0" type="line" smooth="yes"/>
      <point x="26.928660387903676" y="1376.1715898535326"/>
      <point x="27.0" y="1326.0" type="qcurve" smooth="yes"/>
      <point x="27.0" y="1269.0"/>
      <point x="109.0" y="1157.0"/>
      <point x="164.0" y="1157.0" type="qcurve" smooth="yes"/>
      <point x="228.0" y="1157.0"/>
      <point x="279.0" y="1199.0" type="qcurve" smooth="yes"/>
      <point x="285.0" y="1205.0"/>
      <point x="302.0" y="1193.0"/>
      <point x="302.0" y="1183.0"/>
      <point x="299.0" y="1179.0" type="qcurve" smooth="yes"/>
      <point x="237.0" y="1093.0"/>
      <point x="118.0" y="1093.0" type="qcurve" smooth="yes"/>
      <point x="37.0" y="1093.0"/>
      <point x="-14.0" y="1171.0" type="qcurve" smooth="yes"/>
      <point x="-22.0" y="1181.0"/>
      <point x="-24.0" y="1181.0" type="qcurve" smooth="yes"/>
      <point x="-26.0" y="1181.0"/>
      <point x="-33.0" y="1172.0" type="qcurve" smooth="yes"/>
      <point x="-91.0" y="1100.0"/>
      <point x="-153.0" y="1100.0" type="qcurve" smooth="yes"/>
      <point x="-273.0" y="1100.0"/>
    </contour>
    <contour>
      <point x="36.0" y="1432.0" type="qcurve" smooth="yes"/>
      <point x="36.126797481524676" y="1419.6721692662995"/>
      <point x="52.0" y="1426.0" type="qcurve" smooth="yes"/>
      <point x="200.0" y="1485.0" type="line" smooth="yes"/>
      <point x="217.94021103385822" y="1492.1518408851027"/>
      <point x="218.0" y="1508.0" type="qcurve" smooth="yes"/>
      <point x="218.0" y="1524.0"/>
      <point x="167.0" y="1550.0"/>
      <point x="148.0" y="1550.0" type="qcurve" smooth="yes"/>
      <point x="110.0" y="1550.0"/>
      <point x="54.0" y="1492.0"/>
      <point x="41.0" y="1454.0" type="qcurve" smooth="yes"/>
      <point x="36.0" y="1440.0"/>
    </contour>
    <contour>
      <point x="-189.0" y="1204.0" type="qcurve" smooth="yes"/>
      <point x="-189.0" y="1146.0"/>
      <point x="-125.0" y="1146.0" type="qcurve" smooth="yes"/>
      <point x="-98.0" y="1146.0"/>
      <point x="-38.0" y="1211.0"/>
      <point x="-38.0" y="1226.0" type="qcurve"/>
      <point x="-42.0" y="1244.0"/>
      <point x="-53.0" y="1319.0" type="qcurve" smooth="yes"/>
      <point x="-56.0" y="1338.0"/>
      <point x="-65.0" y="1339.0" type="qcurve" smooth="yes"/>
      <point x="-69.0" y="1339.0"/>
      <point x="-77.0" y="1335.0" type="qcurve" smooth="yes"/>
      <point x="-189.0" y="1285.0"/>
    </contour>
  </outline>
</glyph>
<glyph name="uni1DD5" format="2">
  <unicode hex="1DD5"/>
  <anchor x="-445" y="900" name="_above"/>
  <outline>
    <contour>
      <point x="-262.0" y="1201.0" type="qcurve"/>
      <point x="-262.0" y="1224.0"/>
      <point x="-251.0" y="1246.5" type="qcurve"/>
      <point x="-240.0" y="1269.0"/>
      <point x="-218.5" y="1287.0" type="qcurve"/>
      <point x="-197.0" y="1305.0"/>
      <point x="-182.0" y="1313.0" type="qcurve"/>
      <point x="-54.0" y="1384.0" type="line"/>
      <point x="-43.0" y="1390.0"/>
      <point x="-43.0" y="1402.0" type="qcurve"/>
      <point x="-43.0" y="1502.0" type="line"/>
      <point x="-43.0" y="1550.0"/>
      <point x="-116.0" y="1550.0" type="qcurve"/>
      <point x="-169.0" y="1550.0"/>
      <point x="-191.0" y="1522.0" type="qcurve"/>
      <point x="-194.0" y="1518.0"/>
      <point x="-199.0" y="1471.0" type="qcurve"/>
      <point x="-205.0" y="1417.0"/>
      <point x="-237.0" y="1417.0" type="qcurve"/>
      <point x="-267.0" y="1417.0"/>
      <point x="-267.0" y="1448.0" type="qcurve"/>
      <point x="-267.0" y="1479.0"/>
      <point x="-245.0" y="1510.0" type="qcurve"/>
      <point x="-223.0" y="1541.0"/>
      <point x="-207.0" y="1550.0" type="qcurve"/>
      <point x="-137.0" y="1591.0"/>
      <point x="-71.0" y="1591.0" type="qcurve"/>
      <point x="-35.0" y="1591.0"/>
      <point x="-3.0" y="1573.5" type="qcurve"/>
      <point x="29.0" y="1556.0"/>
      <point x="37.0" y="1536.0" type="qcurve"/>
      <point x="66.0" y="1560.0"/>
      <point x="98.5" y="1575.5" type="qcurve"/>
      <point x="131.0" y="1591.0"/>
      <point x="167.0" y="1591.0" type="qcurve"/>
      <point x="254.0" y="1591.0"/>
      <point x="315.5" y="1525.0" type="qcurve"/>
      <point x="377.0" y="1459.0"/>
      <point x="377.0" y="1347.0" type="qcurve"/>
      <point x="377.0" y="1280.0"/>
      <point x="354.0" y="1228.0" type="qcurve"/>
      <point x="331.0" y="1176.0"/>
      <point x="283.0" y="1138.0" type="qcurve"/>
      <point x="235.0" y="1100.0"/>
      <point x="168.0" y="1100.0" type="qcurve"/>
      <point x="78.0" y="1100.0"/>
      <point x="13.0" y="1178.0" type="qcurve"/>
      <point x="5.0" y="1188.0"/>
      <point x="2.5" y="1188.0" type="qcurve"/>
      <point x="0.0" y="1188.0"/>
      <point x="-6.0" y="1179.0" type="qcurve"/>
      <point x="-60.0" y="1100.0"/>
      <point x="-160.0" y="1100.0" type="qcurve"/>
      <point x="-204.0" y="1100.0"/>
      <point x="-224.5" y="1117.0" type="qcurve"/>
      <point x="-245.0" y="1134.0"/>
      <point x="-253.5" y="1156.0" type="qcurve"/>
      <point x="-262.0" y="1178.0"/>
    </contour>
    <contour>
      <point x="41.0" y="1344.0" type="qcurve"/>
      <point x="41.0" y="1247.0"/>
      <point x="80.0" y="1191.5" type="qcurve"/>
      <point x="119.0" y="1136.0"/>
      <point x="167.0" y="1136.0" type="qcurve"/>
      <point x="220.0" y="1136.0"/>
      <point x="262.0" y="1197.5" type="qcurve"/>
      <point x="304.0" y="1259.0"/>
      <point x="304.0" y="1344.0" type="qcurve"/>
      <point x="304.0" y="1447.0"/>
      <point x="264.0" y="1503.0" type="qcurve"/>
      <point x="224.0" y="1559.0"/>
      <point x="168.0" y="1559.0" type="qcurve"/>
      <point x="118.0" y="1559.0"/>
      <point x="79.5" y="1505.0" type="qcurve"/>
      <point x="41.0" y="1451.0"/>
    </contour>
    <contour>
      <point x="-178.0" y="1212.0" type="qcurve"/>
      <point x="-178.0" y="1154.0"/>
      <point x="-114.0" y="1153.0" type="qcurve"/>
      <point x="-81.0" y="1153.0"/>
      <point x="-53.0" y="1186.5" type="qcurve"/>
      <point x="-25.0" y="1220.0"/>
      <point x="-27.0" y="1233.0" type="qcurve"/>
      <point x="-35.0" y="1285.0"/>
      <point x="-42.0" y="1327.0" type="qcurve"/>
      <point x="-45.0" y="1346.0"/>
      <point x="-54.0" y="1346.0" type="qcurve"/>
      <point x="-58.0" y="1346.0"/>
      <point x="-66.0" y="1343.0" type="qcurve"/>
      <point x="-178.0" y="1294.0"/>
    </contour>
  </outline>
</glyph>
<glyph name="uni1E1C" format="1">
  <advance width="1235"/>
  <unicode hex="1E1C"/>
  <outline>
    <contour>
      <point x="900" y="1798" type="qcurve"/>
      <point x="900" y="1523"/>
      <point x="630" y="1523" type="qcurve"/>
      <point x="359" y="1523"/>
      <point x="359" y="1798" type="qcurve"/>
      <point x="367" y="1806"/>
      <point x="380" y="1806" type="qcurve"/>
      <point x="390" y="1806"/>
      <point x="398" y="1798" type="qcurve"/>
      <point x="433" y="1634"/>
      <point x="630" y="1634" type="qcurve"/>
      <point x="823" y="1634"/>
      <point x="861" y="1798" type="qcurve"/>
      <point x="869" y="1806"/>
      <point x="882" y="1806" type="qcurve"/>
      <point x="892" y="1806"/>
    </contour>
    <contour>
      <point x="271" y="177" type="qcurve"/>
      <point x="271" y="1172" type="line"/>
      <point x="271" y="1282"/>
      <point x="84" y="1282" type="qcurve"/>
      <point x="70" y="1282"/>
      <point x="70" y="1320" type="qcurve"/>
      <point x="70" y="1358"/>
      <point x="84" y="1358" type="qcurve"/>
      <point x="224" y="1352"/>
      <point x="354" y="1352" type="qcurve"/>
      <point x="484" y="1352"/>
      <point x="704.5" y="1355" type="qcurve"/>
      <point x="925" y="1358"/>
      <point x="1017" y="1358" type="qcurve"/>
      <point x="1068" y="1358"/>
      <point x="1078.5" y="1351" type="qcurve"/>
      <point x="1089" y="1344"/>
      <point x="1089" y="1331" type="qcurve"/>
      <point x="1089" y="1010" type="line"/>
      <point x="1089" y="993"/>
      <point x="1051.5" y="993" type="qcurve"/>
      <point x="1014" y="993"/>
      <point x="1014" y="1010" type="qcurve"/>
      <point x="1014" y="1276"/>
      <point x="756" y="1282" type="qcurve"/>
      <point x="472" y="1289" type="line"/>
      <point x="431" y="1289"/>
      <point x="431" y="1241" type="qcurve"/>
      <point x="431" y="709" type="line"/>
      <point x="431" y="676"/>
      <point x="459" y="676" type="qcurve"/>
      <point x="665" y="676" type="line"/>
      <point x="743" y="676"/>
      <point x="762.5" y="705" type="qcurve"/>
      <point x="782" y="734"/>
      <point x="782" y="793" type="qcurve"/>
      <point x="782" y="867" type="line"/>
      <point x="782" y="880"/>
      <point x="817" y="880" type="qcurve"/>
      <point x="852" y="880"/>
      <point x="852" y="867" type="qcurve"/>
      <point x="844" y="796"/>
      <point x="844" y="653" type="qcurve"/>
      <point x="844" y="510"/>
      <point x="852" y="430" type="qcurve"/>
      <point x="852" y="417"/>
      <point x="817" y="417" type="qcurve"/>
      <point x="782" y="417"/>
      <point x="782" y="430" type="qcurve"/>
      <point x="782" y="512" type="line"/>
      <point x="782" y="555"/>
      <point x="762.5" y="581" type="qcurve"/>
      <point x="743" y="607"/>
      <point x="665" y="607" type="qcurve"/>
      <point x="456" y="607" type="line"/>
      <point x="431" y="607"/>
      <point x="431" y="576" type="qcurve"/>
      <point x="431" y="262" type="line"/>
      <point x="431" y="149"/>
      <point x="496" y="94" type="qcurve"/>
      <point x="534" y="62"/>
      <point x="587" y="62" type="qcurve"/>
      <point x="822" y="69" type="line"/>
      <point x="1081" y="77"/>
      <point x="1081" y="340" type="qcurve"/>
      <point x="1081" y="357"/>
      <point x="1118.5" y="357" type="qcurve"/>
      <point x="1156" y="357"/>
      <point x="1156" y="340" type="qcurve"/>
      <point x="1156" y="23" type="line"/>
      <point x="1156" y="-1"/>
      <point x="1134" y="-4" type="qcurve"/>
      <point x="1112" y="-7"/>
      <point x="1083" y="-7" type="qcurve"/>
      <point x="967" y="-7"/>
      <point x="727.5" y="-3.5" type="qcurve"/>
      <point x="666.414" y="-2.60731"/>
      <point x="612.517" y="-1.9423" type="qcurve"/>
      <point x="561" y="-73" type="line"/>
      <point x="556" y="-80"/>
      <point x="556" y="-87.5" type="qcurve"/>
      <point x="556" y="-95"/>
      <point x="567" y="-103" type="qcurve"/>
      <point x="675" y="-176"/>
      <point x="675" y="-261" type="qcurve"/>
      <point x="675" y="-346"/>
      <point x="608" y="-396" type="qcurve"/>
      <point x="541" y="-446"/>
      <point x="462" y="-446" type="qcurve"/>
      <point x="343" y="-446"/>
      <point x="343" y="-374" type="qcurve"/>
      <point x="343" y="-321"/>
      <point x="394" y="-321" type="qcurve"/>
      <point x="417" y="-321"/>
      <point x="452.5" y="-350.5" type="qcurve"/>
      <point x="488" y="-380"/>
      <point x="502" y="-380" type="qcurve"/>
      <point x="558" y="-380"/>
      <point x="558" y="-312.5" type="qcurve"/>
      <point x="558" y="-245"/>
      <point x="452" y="-189" type="qcurve"/>
      <point x="433" y="-179"/>
      <point x="433" y="-169.5" type="qcurve"/>
      <point x="433" y="-160"/>
      <point x="438" y="-152" type="qcurve"/>
      <point x="540.483" y="-1.12182" type="line"/>
      <point x="432.03" y="0"/>
      <point x="331.015" y="0" type="qcurve"/>
      <point x="230" y="0"/>
      <point x="84" y="-7" type="qcurve"/>
      <point x="70" y="-7"/>
      <point x="70" y="30.5" type="qcurve"/>
      <point x="70" y="68"/>
      <point x="84" y="69" type="qcurve"/>
      <point x="271" y="69"/>
    </contour>
  </outline>
</glyph>
<glyph name="uni1E23" format="1">
  <advance width="1094"/>
  <unicode hex="1E23"/>
  <outline>
    <contour>
      <point x="462" y="-603" type="move" name="below_center"/>
    </contour>
    <contour>
      <point x="245" y="1771" type="move" name="above_center"/>
    </contour>
    <component base="dotaccent" xOffset="-128" yOffset="468"/>
    <component base="h"/>
  </outline>
</glyph>
<glyph name="uni2E40" format="1">
  <advance width="827"/>
  <unicode hex="2E40"/>
  <outline>
    <contour>
      <point x="115" y="587" type="line"/>
      <point x="99" y="587"/>
      <point x="99" y="644.5" type="qcurve"/>
      <point x="99" y="702"/>
      <point x="115" y="702" type="qcurve"/>
      <point x="707" y="702" type="line"/>
      <point x="724" y="702"/>
      <point x="724" y="644.5" type="qcurve"/>
      <point x="724" y="587"/>
      <point x="705" y="587" type="qcurve"/>
    </contour>
    <contour>
      <point x="115" y="327" type="line"/>
      <point x="99" y="327"/>
      <point x="99" y="384.5" type="qcurve"/>
      <point x="99" y="442"/>
      <point x="115" y="442" type="qcurve"/>
      <point x="707" y="442" type="line"/>
      <point x="724" y="442"/>
      <point x="724" y="384.5" type="qcurve"/>
      <point x="724" y="327"/>
      <point x="705" y="327" type="qcurve"/>
    </contour>
  </outline>
</glyph>
<glyph name="uniA722" format="1">
  <advance width="796"/>
  <unicode hex="A722"/>
  <outline>
    <contour>
      <point x="90" y="58" type="qcurve" smooth="yes"/>
      <point x="161" y="58" type="line" smooth="yes"/>
      <point x="494" y="58"/>
      <point x="494" y="372" type="qcurve" smooth="yes"/>
      <point x="494" y="507"/>
      <point x="300" y="678"/>
      <point x="90" y="689" type="qcurve" smooth="yes"/>
      <point x="78" y="689"/>
      <point x="78" y="754"/>
      <point x="90" y="754" type="qcurve" smooth="yes"/>
      <point x="410" y="767"/>
      <point x="410" y="1032" type="qcurve" smooth="yes"/>
      <point x="410" y="1275"/>
      <point x="90" y="1295" type="qcurve" smooth="yes"/>
      <point x="78" y="1295"/>
      <point x="78" y="1357"/>
      <point x="90" y="1357" type="qcurve" smooth="yes"/>
      <point x="129" y="1358"/>
      <point x="175" y="1358" type="qcurve" smooth="yes"/>
      <point x="348" y="1358"/>
      <point x="582" y="1196"/>
      <point x="582" y="1035" type="qcurve" smooth="yes"/>
      <point x="582" y="836"/>
      <point x="386" y="745" type="qcurve" smooth="yes"/>
      <point x="371" y="738"/>
      <point x="371" y="732" type="qcurve" smooth="yes"/>
      <point x="371" y="725"/>
      <point x="386" y="720" type="qcurve" smooth="yes"/>
      <point x="494" y="685"/>
      <point x="675" y="500"/>
      <point x="675" y="347" type="qcurve" smooth="yes"/>
      <point x="675" y="205"/>
      <point x="466" y="-7"/>
      <point x="175" y="-7" type="qcurve" smooth="yes"/>
      <point x="135" y="-7"/>
      <point x="90" y="-6" type="qcurve" smooth="yes"/>
      <point x="78" y="-6"/>
      <point x="78" y="58"/>
    </contour>
  </outline>
</glyph>
<glyph name="uniA755" format="1">
  <advance width="1392"/>
  <unicode hex="A755"/>
  <outline>
    <contour>
      <point x="719" y="76" type="line"/>
      <point x="719" y="51"/>
      <point x="748" y="51" type="qcurve"/>
      <point x="909" y="51" type="line"/>
      <point x="1049" y="51"/>
      <point x="1106" y="157" type="qcurve"/>
      <point x="1163" y="263"/>
      <point x="1163" y="420" type="qcurve"/>
      <point x="1163" y="788"/>
      <point x="899" y="788" type="qcurve"/>
      <point x="807" y="788"/>
      <point x="739" y="688" type="qcurve"/>
      <point x="719" y="659"/>
      <point x="719" y="594" type="qcurve"/>
    </contour>
    <contour>
      <point x="55" y="368" type="qcurve"/>
      <point x="55" y="470"/>
      <point x="133" y="604" type="qcurve"/>
      <point x="211" y="738"/>
      <point x="211" y="837" type="qcurve"/>
      <point x="211" y="968"/>
      <point x="110.5" y="996" type="qcurve"/>
      <point x="10" y="1024"/>
      <point x="10" y="1094" type="qcurve"/>
      <point x="10" y="1125"/>
      <point x="39.5" y="1142.5" type="qcurve"/>
      <point x="69" y="1160"/>
      <point x="109" y="1160" type="qcurve"/>
      <point x="178" y="1160"/>
      <point x="243.5" y="1098.5" type="qcurve"/>
      <point x="309" y="1037"/>
      <point x="309" y="897" type="qcurve"/>
      <point x="309" y="771"/>
      <point x="269" y="628" type="qcurve"/>
      <point x="229" y="484"/>
      <point x="229" y="382" type="qcurve"/>
      <point x="231" y="51"/>
      <point x="534" y="51" type="qcurve"/>
      <point x="565" y="51"/>
      <point x="565" y="76" type="qcurve"/>
      <point x="565" y="581" type="line"/>
      <point x="565" y="705"/>
      <point x="479" y="705" type="qcurve"/>
      <point x="462" y="705"/>
      <point x="462" y="732.5" type="qcurve"/>
      <point x="462" y="760"/>
      <point x="479" y="760" type="qcurve"/>
      <point x="508" y="760"/>
      <point x="579" y="800" type="qcurve"/>
      <point x="650" y="840"/>
      <point x="671" y="861.5" type="qcurve"/>
      <point x="692" y="883"/>
      <point x="710" y="883" type="qcurve"/>
      <point x="723" y="883"/>
      <point x="723" y="856" type="qcurve"/>
      <point x="719" y="788" type="line"/>
      <point x="719" y="768"/>
      <point x="735" y="768" type="qcurve"/>
      <point x="744" y="768"/>
      <point x="753" y="776" type="qcurve"/>
      <point x="837" y="870"/>
      <point x="940" y="870" type="qcurve"/>
      <point x="1052" y="870"/>
      <point x="1146" y="801.5" type="qcurve"/>
      <point x="1240" y="733"/>
      <point x="1288" y="647.5" type="qcurve"/>
      <point x="1336" y="562"/>
      <point x="1337" y="418" type="qcurve"/>
      <point x="1337" y="220"/>
      <point x="1227.5" y="98.5" type="qcurve"/>
      <point x="1118" y="-23"/>
      <point x="923" y="-23" type="qcurve"/>
      <point x="745" y="-23" type="line"/>
      <point x="719" y="-23"/>
      <point x="719" y="-56" type="qcurve"/>
      <point x="719" y="-416" type="line"/>
      <point x="719" y="-502"/>
      <point x="870" y="-502" type="qcurve"/>
      <point x="884" y="-502"/>
      <point x="884" y="-530.5" type="qcurve"/>
      <point x="884" y="-559"/>
      <point x="870" y="-559" type="qcurve"/>
      <point x="785" y="-551"/>
      <point x="657.5" y="-551" type="qcurve"/>
      <point x="530" y="-551"/>
      <point x="450" y="-559" type="qcurve"/>
      <point x="436" y="-559"/>
      <point x="436" y="-530.5" type="qcurve"/>
      <point x="436" y="-502"/>
      <point x="450" y="-502" type="qcurve"/>
      <point x="565" y="-502"/>
      <point x="565" y="-418" type="qcurve"/>
      <point x="565" y="-47" type="line"/>
      <point x="565" y="-23"/>
      <point x="534" y="-23" type="qcurve"/>
      <point x="318" y="-23"/>
      <point x="186.5" y="66.5" type="qcurve"/>
      <point x="55" y="156"/>
    </contour>
  </outline>
</glyph>
<glyph name="uniA761" format="1">
  <advance width="1331"/>
  <unicode hex="A761"/>
  <outline>
    <contour>
      <point x="839" y="-421" type="line"/>
      <point x="810" y="-505"/>
      <point x="745" y="-539" type="qcurve"/>
      <point x="706" y="-561"/>
      <point x="664" y="-561" type="qcurve"/>
      <point x="631" y="-561"/>
      <point x="592" y="-531" type="qcurve"/>
      <point x="573" y="-516"/>
      <point x="573" y="-489" type="qcurve"/>
      <point x="573" y="-414"/>
      <point x="658" y="-410" type="qcurve"/>
      <point x="761" y="-405"/>
      <point x="783" y="-343" type="qcurve"/>
      <point x="892" y="-30" type="line"/>
      <point x="902" y="-1"/>
      <point x="902" y="11" type="qcurve"/>
      <point x="902" y="22"/>
      <point x="886" y="63" type="qcurve"/>
      <point x="694" y="553" type="line"/>
      <point x="686" y="573"/>
      <point x="680" y="573" type="qcurve"/>
      <point x="673" y="573"/>
      <point x="666" y="553" type="qcurve"/>
      <point x="477" y="16" type="line"/>
      <point x="463" y="-23"/>
      <point x="434" y="-23" type="qcurve"/>
      <point x="405" y="-23"/>
      <point x="395" y="4" type="qcurve"/>
      <point x="115" y="731" type="line"/>
      <point x="87" y="803"/>
      <point x="12" y="803" type="qcurve"/>
      <point x="-2" y="803"/>
      <point x="-2" y="829.5" type="qcurve"/>
      <point x="-2" y="856"/>
      <point x="12" y="856" type="qcurve"/>
      <point x="83" y="850"/>
      <point x="188" y="850" type="qcurve"/>
      <point x="293" y="850"/>
      <point x="367" y="856" type="qcurve"/>
      <point x="381" y="856"/>
      <point x="381" y="829.5" type="qcurve"/>
      <point x="381" y="803"/>
      <point x="367" y="803" type="qcurve"/>
      <point x="289" y="803"/>
      <point x="289" y="748" type="qcurve"/>
      <point x="289" y="731"/>
      <point x="293" y="719" type="qcurve"/>
      <point x="453" y="229" type="line"/>
      <point x="459" y="211"/>
      <point x="467" y="211" type="qcurve"/>
      <point x="475" y="211"/>
      <point x="481" y="229" type="qcurve"/>
      <point x="631" y="664" type="line"/>
      <point x="637" y="681"/>
      <point x="637" y="692" type="qcurve"/>
      <point x="637" y="751"/>
      <point x="586" y="786" type="qcurve"/>
      <point x="561" y="803"/>
      <point x="524" y="803" type="qcurve"/>
      <point x="510" y="803"/>
      <point x="510" y="829.5" type="qcurve"/>
      <point x="510" y="856"/>
      <point x="524" y="856" type="qcurve"/>
      <point x="596" y="850"/>
      <point x="701" y="850" type="qcurve"/>
      <point x="806" y="850"/>
      <point x="879" y="856" type="qcurve"/>
      <point x="893" y="856"/>
      <point x="893" y="829.5" type="qcurve"/>
      <point x="893" y="803"/>
      <point x="879" y="803" type="qcurve"/>
      <point x="801" y="803"/>
      <point x="801" y="748" type="qcurve"/>
      <point x="801" y="731"/>
      <point x="805" y="719" type="qcurve"/>
      <point x="965" y="229" type="line"/>
      <point x="971" y="211"/>
      <point x="979" y="211" type="qcurve"/>
      <point x="987" y="211"/>
      <point x="993" y="229" type="qcurve"/>
      <point x="1163" y="727" type="line"/>
      <point x="1167" y="739"/>
      <point x="1167" y="750" type="qcurve"/>
      <point x="1167" y="803"/>
      <point x="1071" y="803" type="qcurve"/>
      <point x="1057" y="803"/>
      <point x="1057" y="829.5" type="qcurve"/>
      <point x="1057" y="856"/>
      <point x="1071" y="856" type="qcurve"/>
      <point x="1142" y="850"/>
      <point x="1214" y="850" type="qcurve"/>
      <point x="1286" y="850"/>
      <point x="1360" y="856" type="qcurve"/>
      <point x="1374" y="856"/>
      <point x="1374" y="829.5" type="qcurve"/>
      <point x="1374" y="803"/>
      <point x="1360" y="803" type="qcurve"/>
      <point x="1264" y="803"/>
      <point x="1239" y="731" type="qcurve"/>
    </contour>
  </outline>
</glyph>
<glyph name="uniA77D" format="1">
  <advance width="1199"/>
  <unicode hex="A77D"/>
  <outline>
    <contour>
      <point x="1160" y="92" type="qcurve"/>
      <point x="1160" y="-120"/>
      <point x="1004" y="-254" type="qcurve"/>
      <point x="850" y="-386"/>
      <point x="628" y="-386" type="qcurve"/>
      <point x="420" y="-386"/>
      <point x="238" y="-228" type="qcurve"/>
      <point x="64" y="-74"/>
      <point x="64" y="85" type="qcurve"/>
      <point x="64" y="219"/>
      <point x="210" y="351" type="qcurve"/>
      <point x="338" y="466"/>
      <point x="525" y="498" type="qcurve"/>
      <point x="543" y="501"/>
      <point x="542.5" y="509.5" type="qcurve"/>
      <point x="542" y="518"/>
      <point x="528" y="528" type="qcurve"/>
      <point x="350" y="640"/>
      <point x="338" y="650" type="qcurve"/>
      <point x="244" y="728"/>
      <point x="244" y="806" type="qcurve"/>
      <point x="244" y="894"/>
      <point x="571" y="1221" type="qcurve"/>
      <point x="585" y="1234"/>
      <point x="585" y="1242" type="qcurve"/>
      <point x="585" y="1254"/>
      <point x="558" y="1255" type="qcurve"/>
      <point x="100" y="1255" type="line"/>
      <point x="64" y="1256"/>
      <point x="76" y="1272" type="qcurve"/>
      <point x="100" y="1301"/>
      <point x="127" y="1358.5" type="qcurve"/>
      <point x="154" y="1416"/>
      <point x="169" y="1461" type="qcurve"/>
      <point x="172" y="1471"/>
      <point x="192" y="1471" type="qcurve"/>
      <point x="246" y="1471"/>
      <point x="242" y="1447" type="qcurve"/>
      <point x="234" y="1417"/>
      <point x="232" y="1395" type="qcurve"/>
      <point x="232" y="1341"/>
      <point x="318" y="1341" type="qcurve"/>
      <point x="632" y="1341" type="line"/>
      <point x="754.159" y="1341"/>
      <point x="883.043" y="1345.45" type="qcurve"/>
      <point x="1011.93" y="1349.9"/>
      <point x="1141" y="1358" type="qcurve"/>
      <point x="1170" y="1358"/>
      <point x="1170" y="1306.5" type="qcurve"/>
      <point x="1170" y="1255"/>
      <point x="1141" y="1255" type="qcurve"/>
      <point x="768" y="1255" type="line"/>
      <point x="722" y="1255"/>
      <point x="691" y="1219" type="qcurve"/>
      <point x="594" y="1102" type="line"/>
      <point x="445" y="924"/>
      <point x="445" y="822" type="qcurve"/>
      <point x="445" y="735"/>
      <point x="592" y="626" type="qcurve"/>
      <point x="624" y="603"/>
      <point x="665" y="579" type="qcurve"/>
      <point x="996" y="384" type="line"/>
      <point x="1160" y="287"/>
    </contour>
    <contour>
      <point x="969" y="92" type="qcurve"/>
      <point x="969" y="218"/>
      <point x="875" y="318" type="qcurve"/>
      <point x="772" y="428"/>
      <point x="596" y="428" type="qcurve"/>
      <point x="436" y="428"/>
      <point x="329" y="308" type="qcurve"/>
      <point x="252" y="222"/>
      <point x="252" y="85" type="qcurve"/>
      <point x="252" y="-45"/>
      <point x="364" y="-176" type="qcurve"/>
      <point x="480" y="-312"/>
      <point x="631" y="-312" type="qcurve"/>
      <point x="771" y="-312"/>
      <point x="875" y="-169" type="qcurve"/>
      <point x="969" y="-38"/>
    </contour>
  </outline>
</glyph>
<glyph name="uniA7FE" format="1">
  <advance width="683"/>
  <unicode hex="A7FE"/>
  <outline>
    <contour>
      <point x="271" y="-114" type="qcurve"/>
      <point x="271" y="1172" type="line"/>
      <point x="271" y="1287"/>
      <point x="82" y="1287" type="qcurve"/>
      <point x="68" y="1287"/>
      <point x="68" y="1325" type="qcurve"/>
      <point x="68" y="1363"/>
      <point x="82" y="1363" type="qcurve"/>
      <point x="127" y="1358"/>
      <point x="346.5" y="1358" type="qcurve"/>
      <point x="566" y="1358"/>
      <point x="611" y="1363" type="qcurve"/>
      <point x="624" y="1363"/>
      <point x="624" y="1325" type="qcurve"/>
      <point x="624" y="1287"/>
      <point x="611" y="1287" type="qcurve"/>
      <point x="506" y="1287"/>
      <point x="468.5" y="1262" type="qcurve"/>
      <point x="431" y="1237"/>
      <point x="431" y="1172" type="qcurve"/>
      <point x="431" y="-114" type="line"/>
      <point x="431" y="-231"/>
      <point x="611" y="-231" type="qcurve"/>
      <point x="624" y="-231"/>
      <point x="624" y="-269" type="qcurve"/>
      <point x="624" y="-307"/>
      <point x="611" y="-307" type="qcurve"/>
      <point x="525" y="-300"/>
      <point x="352" y="-300" type="qcurve"/>
      <point x="179" y="-300"/>
      <point x="93" y="-307" type="qcurve"/>
      <point x="80" y="-307"/>
      <point x="80" y="-269" type="qcurve"/>
      <point x="80" y="-231"/>
      <point x="93" y="-231" type="qcurve"/>
      <point x="271" y="-231"/>
    </contour>
  </outline>
</glyph>
<glyph name="uniE0E9" format="1">
  <advance width="1235"/>
  <unicode hex="E0E9"/>
  <outline>
    <contour>
      <point x="271" y="177" type="qcurve" smooth="yes"/>
      <point x="271" y="1172" type="line" smooth="yes"/>
      <point x="271" y="1282"/>
      <point x="84" y="1282" type="qcurve" smooth="yes"/>
      <point x="70" y="1282"/>
      <point x="70" y="1358"/>
      <point x="84" y="1358" type="qcurve"/>
      <point x="224" y="1352"/>
      <point x="355" y="1352" type="qcurve" smooth="yes"/>
      <point x="456" y="1352"/>
      <point x="609" y="1354" type="qcurve"/>
      <point x="754" y="1500"/>
      <point x="754" y="1609" type="qcurve" smooth="yes"/>
      <point x="754" y="1723"/>
      <point x="642" y="1723" type="qcurve" smooth="yes"/>
      <point x="588" y="1723"/>
      <point x="548" y="1693" type="qcurve"/>
      <point x="530" y="1699"/>
      <point x="530" y="1725" type="qcurve"/>
      <point x="592" y="1808"/>
      <point x="676" y="1821" type="qcurve" smooth="yes"/>
      <point x="694" y="1824"/>
      <point x="716" y="1824" type="qcurve" smooth="yes"/>
      <point x="816" y="1824"/>
      <point x="862" y="1754" type="qcurve" smooth="yes"/>
      <point x="886" y="1716"/>
      <point x="886" y="1664" type="qcurve" smooth="yes"/>
      <point x="886" y="1521"/>
      <point x="692" y="1355" type="qcurve"/>
      <point x="705" y="1355" type="line" smooth="yes"/>
      <point x="925" y="1358"/>
      <point x="1017" y="1358" type="qcurve" smooth="yes"/>
      <point x="1068" y="1358"/>
      <point x="1089" y="1344"/>
      <point x="1089" y="1331" type="qcurve" smooth="yes"/>
      <point x="1089" y="1010" type="line" smooth="yes"/>
      <point x="1089" y="993"/>
      <point x="1014" y="993"/>
      <point x="1014" y="1010" type="qcurve" smooth="yes"/>
      <point x="1014" y="1276"/>
      <point x="756" y="1282" type="qcurve" smooth="yes"/>
      <point x="472" y="1289" type="line" smooth="yes"/>
      <point x="431" y="1290"/>
      <point x="431" y="1241" type="qcurve" smooth="yes"/>
      <point x="431" y="709" type="line" smooth="yes"/>
      <point x="431" y="676"/>
      <point x="459" y="676" type="qcurve" smooth="yes"/>
      <point x="665" y="676" type="line" smooth="yes"/>
      <point x="743" y="676"/>
      <point x="782" y="734"/>
      <point x="782" y="793" type="qcurve" smooth="yes"/>
      <point x="782" y="867" type="line" smooth="yes"/>
      <point x="782" y="880"/>
      <point x="852" y="881"/>
      <point x="852" y="867" type="qcurve" smooth="yes"/>
      <point x="844" y="796"/>
      <point x="844" y="510"/>
      <point x="852" y="430" type="qcurve" smooth="yes"/>
      <point x="852" y="417"/>
      <point x="782" y="416"/>
      <point x="782" y="430" type="qcurve" smooth="yes"/>
      <point x="782" y="512" type="line" smooth="yes"/>
      <point x="782" y="555"/>
      <point x="743" y="607"/>
      <point x="665" y="607" type="qcurve" smooth="yes"/>
      <point x="456" y="607" type="line" smooth="yes"/>
      <point x="431" y="607"/>
      <point x="431" y="576" type="qcurve" smooth="yes"/>
      <point x="431" y="262" type="line" smooth="yes"/>
      <point x="431" y="149"/>
      <point x="496" y="94" type="qcurve" smooth="yes"/>
      <point x="534" y="62"/>
      <point x="587" y="62" type="qcurve" smooth="yes"/>
      <point x="822" y="69" type="line" smooth="yes"/>
      <point x="1081" y="77"/>
      <point x="1081" y="340" type="qcurve" smooth="yes"/>
      <point x="1081" y="357"/>
      <point x="1156" y="357"/>
      <point x="1156" y="340" type="qcurve" smooth="yes"/>
      <point x="1156" y="23" type="line" smooth="yes"/>
      <point x="1156" y="-2"/>
      <point x="1128" y="-5" type="qcurve" smooth="yes"/>
      <point x="1112" y="-7"/>
      <point x="1083" y="-7" type="qcurve" smooth="yes"/>
      <point x="967" y="-7"/>
      <point x="488" y="0"/>
      <point x="230" y="0"/>
      <point x="84" y="-7" type="qcurve"/>
      <point x="70" y="-7"/>
      <point x="70" y="68"/>
      <point x="84" y="69" type="qcurve" smooth="yes"/>
      <point x="271" y="69"/>
    </contour>
  </outline>
</glyph>
<glyph name="longs_longs" format="1">
  <advance width="1067"/>
  <unicode hex="E1AB"/>
  <outline>
    <contour>
      <point x="1372" y="1374" type="qcurve"/>
      <point x="1372" y="1321"/>
      <point x="1315" y="1292" type="qcurve"/>
      <point x="1299" y="1284"/>
      <point x="1286" y="1284" type="qcurve"/>
      <point x="1228" y="1284"/>
      <point x="1180" y="1343" type="qcurve"/>
      <point x="1140" y="1392"/>
      <point x="1085" y="1393" type="qcurve"/>
      <point x="988" y="1393"/>
      <point x="930" y="1319" type="qcurve"/>
      <point x="868" y="1236"/>
      <point x="868" y="995" type="qcurve"/>
      <point x="868" y="127" type="line"/>
      <point x="868" y="50"/>
      <point x="1010" y="49" type="qcurve"/>
      <point x="1023" y="49"/>
      <point x="1023" y="21.5" type="qcurve"/>
      <point x="1023" y="-6"/>
      <point x="1010" y="-8" type="qcurve"/>
      <point x="928" y="0"/>
      <point x="804" y="0" type="qcurve"/>
      <point x="680" y="0"/>
      <point x="598" y="-8" type="qcurve"/>
      <point x="585" y="-8"/>
      <point x="585" y="20.5" type="qcurve"/>
      <point x="585" y="49"/>
      <point x="598" y="49" type="qcurve"/>
      <point x="715" y="49"/>
      <point x="715" y="125" type="qcurve"/>
      <point x="715" y="690" type="line"/>
      <point x="715" y="712"/>
      <point x="690" y="713" type="qcurve"/>
      <point x="606" y="713" type="line"/>
      <point x="590" y="713"/>
      <point x="590" y="740.5" type="qcurve"/>
      <point x="590" y="768"/>
      <point x="606" y="768" type="qcurve"/>
      <point x="655" y="768"/>
      <point x="689" y="821" type="qcurve"/>
      <point x="715" y="862"/>
      <point x="715" y="924" type="qcurve"/>
      <point x="715" y="1112"/>
      <point x="784" y="1229" type="qcurve"/>
      <point x="730" y="1334"/>
      <point x="646" y="1351" type="qcurve"/>
      <point x="622" y="1356"/>
      <point x="592" y="1356" type="qcurve"/>
      <point x="495" y="1356"/>
      <point x="434" y="1282" type="qcurve"/>
      <point x="375" y="1205"/>
      <point x="375" y="1015" type="qcurve"/>
      <point x="375" y="127" type="line"/>
      <point x="375" y="49"/>
      <point x="492" y="49" type="qcurve"/>
      <point x="505" y="49"/>
      <point x="505" y="21.5" type="qcurve"/>
      <point x="505" y="-6"/>
      <point x="492" y="-8" type="qcurve"/>
      <point x="410" y="0"/>
      <point x="298" y="0" type="qcurve"/>
      <point x="186" y="0"/>
      <point x="104" y="-8" type="qcurve"/>
      <point x="91" y="-8"/>
      <point x="91" y="20.5" type="qcurve"/>
      <point x="91" y="49"/>
      <point x="104" y="49" type="qcurve"/>
      <point x="221" y="49"/>
      <point x="221" y="125" type="qcurve"/>
      <point x="221" y="688" type="line"/>
      <point x="221" y="713"/>
      <point x="197" y="713" type="qcurve"/>
      <point x="115" y="713" type="line"/>
      <point x="99" y="713"/>
      <point x="99" y="740.5" type="qcurve"/>
      <point x="99" y="768"/>
      <point x="115" y="768" type="qcurve"/>
      <point x="162" y="768"/>
      <point x="195" y="821" type="qcurve"/>
      <point x="221" y="862"/>
      <point x="221" y="924" type="qcurve"/>
      <point x="221" y="1144"/>
      <point x="352" y="1288" type="qcurve"/>
      <point x="495" y="1450"/>
      <point x="692" y="1450" type="qcurve"/>
      <point x="802" y="1450"/>
      <point x="877" y="1356" type="qcurve"/>
      <point x="1014" y="1487"/>
      <point x="1186" y="1487" type="qcurve"/>
      <point x="1327" y="1487"/>
      <point x="1363" y="1413" type="qcurve"/>
      <point x="1372" y="1395"/>
    </contour>
  </outline>
</glyph>
<glyph name="uniE2EE" format="1">
  <advance width="1321"/>
  <unicode hex="E2EE"/>
  <outline>
    <contour>
      <point x="800" y="-379" type="qcurve"/>
      <point x="758" y="-435"/>
      <point x="709.5" y="-461.5" type="qcurve"/>
      <point x="661" y="-488"/>
      <point x="594" y="-488" type="qcurve"/>
      <point x="506" y="-488"/>
      <point x="459" y="-435.5" type="qcurve"/>
      <point x="412" y="-383"/>
      <point x="412" y="-311" type="qcurve"/>
      <point x="412" y="-163"/>
      <point x="587" y="-0" type="qcurve"/>
      <point x="454" y="-1"/>
      <point x="379" y="-7" type="qcurve"/>
      <point x="365" y="-7"/>
      <point x="365" y="31" type="qcurve"/>
      <point x="365" y="69"/>
      <point x="379" y="69" type="qcurve"/>
      <point x="576" y="69"/>
      <point x="576" y="186" type="qcurve"/>
      <point x="576" y="1236" type="line"/>
      <point x="576" y="1282"/>
      <point x="528" y="1282" type="qcurve"/>
      <point x="376" y="1282" type="line"/>
      <point x="111" y="1282"/>
      <point x="111" y="1006" type="qcurve"/>
      <point x="111" y="992"/>
      <point x="73" y="992" type="qcurve"/>
      <point x="35" y="992"/>
      <point x="35" y="1006" type="qcurve"/>
      <point x="35" y="1325" type="line"/>
      <point x="35" y="1358"/>
      <point x="113" y="1358" type="qcurve"/>
      <point x="214" y="1358"/>
      <point x="377" y="1355.5" type="qcurve"/>
      <point x="540" y="1353"/>
      <point x="656" y="1353" type="qcurve"/>
      <point x="772" y="1353"/>
      <point x="934" y="1355.5" type="qcurve"/>
      <point x="1096" y="1358"/>
      <point x="1209" y="1358" type="qcurve"/>
      <point x="1287" y="1358"/>
      <point x="1287" y="1325" type="qcurve"/>
      <point x="1287" y="1006" type="line"/>
      <point x="1287" y="992"/>
      <point x="1249" y="992" type="qcurve"/>
      <point x="1211" y="992"/>
      <point x="1211" y="1006" type="qcurve"/>
      <point x="1211" y="1282"/>
      <point x="949" y="1282" type="qcurve"/>
      <point x="787" y="1282" type="line"/>
      <point x="736" y="1282"/>
      <point x="736" y="1236" type="qcurve"/>
      <point x="736" y="186" type="line"/>
      <point x="736" y="69"/>
      <point x="925" y="69" type="qcurve"/>
      <point x="939" y="69"/>
      <point x="939" y="31" type="qcurve"/>
      <point x="939" y="-7"/>
      <point x="925" y="-7" type="qcurve"/>
      <point x="841" y="-1"/>
      <point x="683" y="-0" type="qcurve"/>
      <point x="553" y="-141"/>
      <point x="553" y="-249" type="qcurve"/>
      <point x="553" y="-377"/>
      <point x="676" y="-377" type="qcurve"/>
      <point x="736" y="-377"/>
      <point x="779" y="-343" type="qcurve"/>
      <point x="800" y="-350"/>
    </contour>
  </outline>
</glyph>
<glyph name="uniE43F" format="1">
  <advance width="1145"/>
  <unicode hex="E43F"/>
  <outline>
    <contour>
      <point x="578" y="1265" type="move" name="above"/>
    </contour>
    <component base="ae"/>
    <component base="breve" xOffset="207"/>
  </outline>
</glyph>
<glyph name="uniE6EE" format="1">
  <advance width="674"/>
  <unicode hex="E6EE"/>
  <outline>
    <contour>
      <point x="637" y="-379" type="qcurve"/>
      <point x="595" y="-435"/>
      <point x="546.5" y="-461.5" type="qcurve"/>
      <point x="498" y="-488"/>
      <point x="431" y="-488" type="qcurve"/>
      <point x="343" y="-488"/>
      <point x="296" y="-435.5" type="qcurve"/>
      <point x="249" y="-383"/>
      <point x="249" y="-311" type="qcurve"/>
      <point x="249" y="-173"/>
      <point x="401" y="-23" type="qcurve"/>
      <point x="294" y="-18"/>
      <point x="246" y="32" type="qcurve"/>
      <point x="194" y="86"/>
      <point x="193" y="213" type="qcurve"/>
      <point x="193" y="720" type="line"/>
      <point x="193" y="760"/>
      <point x="153" y="760" type="qcurve"/>
      <point x="80" y="760" type="line"/>
      <point x="66" y="760"/>
      <point x="66" y="783" type="qcurve"/>
      <point x="66" y="806"/>
      <point x="80" y="806" type="qcurve"/>
      <point x="125" y="806"/>
      <point x="173" y="841.5" type="qcurve"/>
      <point x="221" y="877"/>
      <point x="253" y="919.5" type="qcurve"/>
      <point x="285" y="962"/>
      <point x="301" y="1001" type="qcurve"/>
      <point x="305" y="1010"/>
      <point x="315" y="1010" type="qcurve"/>
      <point x="325" y="1010"/>
      <point x="335.5" y="1005" type="qcurve"/>
      <point x="346" y="1000"/>
      <point x="346" y="991" type="qcurve"/>
      <point x="346" y="893" type="line"/>
      <point x="346" y="850"/>
      <point x="387" y="850" type="qcurve"/>
      <point x="631" y="850" type="line"/>
      <point x="645" y="850"/>
      <point x="645" y="805" type="qcurve"/>
      <point x="645" y="760"/>
      <point x="631" y="760" type="qcurve"/>
      <point x="387" y="760" type="line"/>
      <point x="346" y="760"/>
      <point x="346" y="720" type="qcurve"/>
      <point x="346" y="317" type="line"/>
      <point x="346" y="186"/>
      <point x="383.5" y="130" type="qcurve"/>
      <point x="421" y="74"/>
      <point x="508" y="74" type="qcurve"/>
      <point x="560" y="74"/>
      <point x="616" y="113" type="qcurve"/>
      <point x="630" y="123"/>
      <point x="637.5" y="109" type="qcurve"/>
      <point x="645" y="95"/>
      <point x="645" y="88" type="qcurve"/>
      <point x="645" y="81"/>
      <point x="643" y="78" type="qcurve"/>
      <point x="588" y="12"/>
      <point x="510" y="-11" type="qcurve"/>
      <point x="390" y="-145"/>
      <point x="390" y="-249" type="qcurve"/>
      <point x="390" y="-377"/>
      <point x="513" y="-377" type="qcurve"/>
      <point x="573" y="-377"/>
      <point x="616" y="-343" type="qcurve"/>
      <point x="637" y="-350"/>
    </contour>
  </outline>
</glyph>
<glyph name="uniEBF0" format="1">
  <advance width="1754"/>
  <unicode hex="EBF0"/>
  <outline>
    <contour>
      <point x="852" y="627" type="qcurve"/>
      <point x="684" y="1159" type="line"/>
      <point x="678" y="1179"/>
      <point x="666.5" y="1179" type="qcurve"/>
      <point x="655" y="1179"/>
      <point x="647" y="1159" type="qcurve"/>
      <point x="450" y="627" type="line"/>
      <point x="448" y="612" type="line"/>
      <point x="451" y="600"/>
      <point x="472" y="600" type="qcurve"/>
      <point x="829" y="600" type="line"/>
      <point x="854" y="600"/>
      <point x="854" y="616" type="qcurve"/>
      <point x="854" y="621"/>
    </contour>
    <contour>
      <point x="1127" y="-13" type="line"/>
      <point x="1117" y="-38"/>
      <point x="1091" y="-38" type="qcurve"/>
      <point x="1076" y="-38"/>
      <point x="1066" y="-27" type="qcurve"/>
      <point x="960" y="-152"/>
      <point x="960" y="-249" type="qcurve"/>
      <point x="960" y="-377"/>
      <point x="1082" y="-377" type="qcurve"/>
      <point x="1142" y="-377"/>
      <point x="1186" y="-343" type="qcurve"/>
      <point x="1207" y="-350"/>
      <point x="1207" y="-379" type="qcurve"/>
      <point x="1165" y="-436"/>
      <point x="1115.5" y="-462" type="qcurve"/>
      <point x="1066" y="-488"/>
      <point x="1000" y="-488" type="qcurve"/>
      <point x="912" y="-488"/>
      <point x="865" y="-435.5" type="qcurve"/>
      <point x="818" y="-383"/>
      <point x="818" y="-311" type="qcurve"/>
      <point x="818" y="-145"/>
      <point x="1038" y="39" type="qcurve"/>
      <point x="892" y="499" type="line"/>
      <point x="883" y="531"/>
      <point x="848" y="531" type="qcurve"/>
      <point x="445" y="531" type="line"/>
      <point x="417" y="531"/>
      <point x="405" y="496" type="qcurve"/>
      <point x="292" y="182" type="line"/>
      <point x="283" y="160"/>
      <point x="283" y="142" type="qcurve"/>
      <point x="283" y="69"/>
      <point x="434" y="69" type="qcurve"/>
      <point x="448" y="69"/>
      <point x="448" y="31" type="qcurve"/>
      <point x="448" y="-7"/>
      <point x="434" y="-7" type="qcurve"/>
      <point x="354" y="0"/>
      <point x="221" y="0" type="qcurve"/>
      <point x="88" y="0"/>
      <point x="9" y="-7" type="qcurve"/>
      <point x="-4" y="-7"/>
      <point x="-4" y="31" type="qcurve"/>
      <point x="-4" y="69"/>
      <point x="9" y="69" type="qcurve"/>
      <point x="112" y="69"/>
      <point x="144" y="102" type="qcurve"/>
      <point x="173" y="132"/>
      <point x="204" y="201" type="qcurve"/>
      <point x="581" y="1188" type="line"/>
      <point x="587" y="1205"/>
      <point x="587" y="1218" type="qcurve"/>
      <point x="587" y="1231"/>
      <point x="579" y="1238" type="qcurve"/>
      <point x="561" y="1258"/>
      <point x="561" y="1265" type="qcurve"/>
      <point x="561" y="1270"/>
      <point x="587" y="1283" type="qcurve"/>
      <point x="640" y="1313"/>
      <point x="720" y="1369" type="qcurve"/>
      <point x="746" y="1387"/>
      <point x="758" y="1387" type="qcurve"/>
      <point x="781" y="1387"/>
      <point x="793" y="1343" type="qcurve"/>
      <point x="811" y="1275"/>
      <point x="842" y="1177" type="qcurve"/>
      <point x="1117" y="301" type="line"/>
      <point x="1124" y="281"/>
      <point x="1133" y="281" type="qcurve"/>
      <point x="1144" y="281"/>
      <point x="1153" y="303" type="qcurve"/>
      <point x="1481" y="1163" type="line"/>
      <point x="1491" y="1189"/>
      <point x="1491" y="1209" type="qcurve"/>
      <point x="1491" y="1287"/>
      <point x="1389" y="1287" type="qcurve"/>
      <point x="1375" y="1287"/>
      <point x="1375" y="1325" type="qcurve"/>
      <point x="1375" y="1363"/>
      <point x="1389" y="1363" type="qcurve"/>
      <point x="1435" y="1358"/>
      <point x="1583.5" y="1358" type="qcurve"/>
      <point x="1732" y="1358"/>
      <point x="1777" y="1363" type="qcurve"/>
      <point x="1791" y="1363"/>
      <point x="1791" y="1325" type="qcurve"/>
      <point x="1791" y="1287"/>
      <point x="1777" y="1287" type="qcurve"/>
      <point x="1623" y="1287"/>
      <point x="1590" y="1201" type="qcurve"/>
    </contour>
  </outline>
</glyph>
